<mxfile host="Electron" modified="2023-06-08T08:41:22.499Z" agent="Mozilla/5.0 (Macintosh; Intel Mac OS X 10_15_7) AppleWebKit/537.36 (KHTML, like Gecko) draw.io/21.2.8 Chrome/112.0.5615.165 Electron/24.2.0 Safari/537.36" etag="eVkIij00_eJoD0U0AjGM" version="21.2.8" type="device" pages="11">
  <diagram id="Wx4YkQrOtqsX_eGSpNlv" name="list of binary trees">
    <mxGraphModel dx="1114" dy="776" grid="1" gridSize="10" guides="1" tooltips="1" connect="1" arrows="1" fold="1" page="1" pageScale="1" pageWidth="850" pageHeight="1100" math="1" shadow="0">
      <root>
        <mxCell id="0" />
        <mxCell id="1" parent="0" />
        <mxCell id="wNknfQXfMpDQp4eMUoft-4" style="rounded=0;orthogonalLoop=1;jettySize=auto;html=1;exitX=0;exitY=1;exitDx=0;exitDy=0;entryX=0.5;entryY=0;entryDx=0;entryDy=0;fontFamily=Times New Roman;fontSize=17;" parent="1" source="wNknfQXfMpDQp4eMUoft-1" target="wNknfQXfMpDQp4eMUoft-2" edge="1">
          <mxGeometry relative="1" as="geometry" />
        </mxCell>
        <mxCell id="wNknfQXfMpDQp4eMUoft-5" style="edgeStyle=none;rounded=0;orthogonalLoop=1;jettySize=auto;html=1;exitX=1;exitY=1;exitDx=0;exitDy=0;entryX=0.5;entryY=0;entryDx=0;entryDy=0;fontFamily=Times New Roman;fontSize=17;" parent="1" source="wNknfQXfMpDQp4eMUoft-1" target="wNknfQXfMpDQp4eMUoft-3" edge="1">
          <mxGeometry relative="1" as="geometry" />
        </mxCell>
        <mxCell id="wNknfQXfMpDQp4eMUoft-1" value="`t_1`" style="ellipse;whiteSpace=wrap;html=1;aspect=fixed;fontFamily=Times New Roman;fontSize=17;" parent="1" vertex="1">
          <mxGeometry x="180" y="240" width="50" height="50" as="geometry" />
        </mxCell>
        <mxCell id="wNknfQXfMpDQp4eMUoft-2" value="`x_1`" style="ellipse;whiteSpace=wrap;html=1;aspect=fixed;fontFamily=Times New Roman;fontSize=17;" parent="1" vertex="1">
          <mxGeometry x="140" y="320" width="50" height="50" as="geometry" />
        </mxCell>
        <mxCell id="wNknfQXfMpDQp4eMUoft-3" value="`x_2`" style="ellipse;whiteSpace=wrap;html=1;aspect=fixed;fontFamily=Times New Roman;fontSize=17;" parent="1" vertex="1">
          <mxGeometry x="220" y="320" width="50" height="50" as="geometry" />
        </mxCell>
        <mxCell id="wNknfQXfMpDQp4eMUoft-6" style="rounded=0;orthogonalLoop=1;jettySize=auto;html=1;exitX=0;exitY=1;exitDx=0;exitDy=0;entryX=0.5;entryY=0;entryDx=0;entryDy=0;fontFamily=Times New Roman;fontSize=17;" parent="1" source="wNknfQXfMpDQp4eMUoft-8" target="wNknfQXfMpDQp4eMUoft-9" edge="1">
          <mxGeometry relative="1" as="geometry" />
        </mxCell>
        <mxCell id="wNknfQXfMpDQp4eMUoft-7" style="edgeStyle=none;rounded=0;orthogonalLoop=1;jettySize=auto;html=1;exitX=1;exitY=1;exitDx=0;exitDy=0;entryX=0.5;entryY=0;entryDx=0;entryDy=0;fontFamily=Times New Roman;fontSize=17;" parent="1" source="wNknfQXfMpDQp4eMUoft-8" target="wNknfQXfMpDQp4eMUoft-10" edge="1">
          <mxGeometry relative="1" as="geometry" />
        </mxCell>
        <mxCell id="wNknfQXfMpDQp4eMUoft-8" value="" style="ellipse;whiteSpace=wrap;html=1;aspect=fixed;fontFamily=Times New Roman;fontSize=17;" parent="1" vertex="1">
          <mxGeometry x="340" y="240" width="50" height="50" as="geometry" />
        </mxCell>
        <mxCell id="wNknfQXfMpDQp4eMUoft-9" value="`x_3`" style="ellipse;whiteSpace=wrap;html=1;aspect=fixed;fontFamily=Times New Roman;fontSize=17;" parent="1" vertex="1">
          <mxGeometry x="300" y="320" width="50" height="50" as="geometry" />
        </mxCell>
        <mxCell id="wNknfQXfMpDQp4eMUoft-10" value="`x_4`" style="ellipse;whiteSpace=wrap;html=1;aspect=fixed;fontFamily=Times New Roman;fontSize=17;" parent="1" vertex="1">
          <mxGeometry x="380" y="320" width="50" height="50" as="geometry" />
        </mxCell>
        <mxCell id="wNknfQXfMpDQp4eMUoft-11" style="rounded=0;orthogonalLoop=1;jettySize=auto;html=1;exitX=0;exitY=1;exitDx=0;exitDy=0;entryX=0.5;entryY=0;entryDx=0;entryDy=0;fontFamily=Times New Roman;fontSize=17;" parent="1" source="wNknfQXfMpDQp4eMUoft-13" target="wNknfQXfMpDQp4eMUoft-14" edge="1">
          <mxGeometry relative="1" as="geometry" />
        </mxCell>
        <mxCell id="wNknfQXfMpDQp4eMUoft-12" style="edgeStyle=none;rounded=0;orthogonalLoop=1;jettySize=auto;html=1;exitX=1;exitY=1;exitDx=0;exitDy=0;entryX=0.5;entryY=0;entryDx=0;entryDy=0;fontFamily=Times New Roman;fontSize=17;" parent="1" source="wNknfQXfMpDQp4eMUoft-13" target="wNknfQXfMpDQp4eMUoft-15" edge="1">
          <mxGeometry relative="1" as="geometry" />
        </mxCell>
        <mxCell id="wNknfQXfMpDQp4eMUoft-13" value="" style="ellipse;whiteSpace=wrap;html=1;aspect=fixed;fontFamily=Times New Roman;fontSize=17;" parent="1" vertex="1">
          <mxGeometry x="500" y="240" width="50" height="50" as="geometry" />
        </mxCell>
        <mxCell id="wNknfQXfMpDQp4eMUoft-14" value="`x_5`" style="ellipse;whiteSpace=wrap;html=1;aspect=fixed;fontFamily=Times New Roman;fontSize=17;" parent="1" vertex="1">
          <mxGeometry x="460" y="320" width="50" height="50" as="geometry" />
        </mxCell>
        <mxCell id="wNknfQXfMpDQp4eMUoft-15" value="`x_6`" style="ellipse;whiteSpace=wrap;html=1;aspect=fixed;fontFamily=Times New Roman;fontSize=17;" parent="1" vertex="1">
          <mxGeometry x="540" y="320" width="50" height="50" as="geometry" />
        </mxCell>
        <mxCell id="wNknfQXfMpDQp4eMUoft-17" style="edgeStyle=none;rounded=0;orthogonalLoop=1;jettySize=auto;html=1;exitX=0;exitY=1;exitDx=0;exitDy=0;fontFamily=Times New Roman;fontSize=17;" parent="1" source="wNknfQXfMpDQp4eMUoft-16" target="wNknfQXfMpDQp4eMUoft-8" edge="1">
          <mxGeometry relative="1" as="geometry" />
        </mxCell>
        <mxCell id="wNknfQXfMpDQp4eMUoft-18" style="edgeStyle=none;rounded=0;orthogonalLoop=1;jettySize=auto;html=1;exitX=1;exitY=1;exitDx=0;exitDy=0;entryX=0;entryY=0;entryDx=0;entryDy=0;fontFamily=Times New Roman;fontSize=17;" parent="1" source="wNknfQXfMpDQp4eMUoft-16" target="wNknfQXfMpDQp4eMUoft-13" edge="1">
          <mxGeometry relative="1" as="geometry" />
        </mxCell>
        <mxCell id="wNknfQXfMpDQp4eMUoft-16" value="`t_2`" style="ellipse;whiteSpace=wrap;html=1;aspect=fixed;fontFamily=Times New Roman;fontSize=17;" parent="1" vertex="1">
          <mxGeometry x="420" y="150" width="50" height="50" as="geometry" />
        </mxCell>
      </root>
    </mxGraphModel>
  </diagram>
  <diagram name="bralist add" id="_agSh6j62c_-OcVZ3mn_">
    <mxGraphModel dx="1159" dy="784" grid="1" gridSize="10" guides="1" tooltips="1" connect="1" arrows="1" fold="1" page="1" pageScale="1" pageWidth="850" pageHeight="1100" math="1" shadow="0">
      <root>
        <mxCell id="4gdsQeyCWLUxbPoMDBXh-0" />
        <mxCell id="4gdsQeyCWLUxbPoMDBXh-1" parent="4gdsQeyCWLUxbPoMDBXh-0" />
        <mxCell id="4gdsQeyCWLUxbPoMDBXh-2" style="rounded=0;orthogonalLoop=1;jettySize=auto;html=1;exitX=0;exitY=1;exitDx=0;exitDy=0;entryX=0.5;entryY=0;entryDx=0;entryDy=0;fontFamily=Times New Roman;fontSize=17;" edge="1" parent="4gdsQeyCWLUxbPoMDBXh-1" source="4gdsQeyCWLUxbPoMDBXh-4" target="4gdsQeyCWLUxbPoMDBXh-5">
          <mxGeometry relative="1" as="geometry" />
        </mxCell>
        <mxCell id="4gdsQeyCWLUxbPoMDBXh-3" style="edgeStyle=none;rounded=0;orthogonalLoop=1;jettySize=auto;html=1;exitX=1;exitY=1;exitDx=0;exitDy=0;entryX=0.5;entryY=0;entryDx=0;entryDy=0;fontFamily=Times New Roman;fontSize=17;" edge="1" parent="4gdsQeyCWLUxbPoMDBXh-1" source="4gdsQeyCWLUxbPoMDBXh-4" target="4gdsQeyCWLUxbPoMDBXh-6">
          <mxGeometry relative="1" as="geometry" />
        </mxCell>
        <mxCell id="4gdsQeyCWLUxbPoMDBXh-4" value="`t_1`" style="ellipse;whiteSpace=wrap;html=1;aspect=fixed;fontFamily=Times New Roman;fontSize=17;" vertex="1" parent="4gdsQeyCWLUxbPoMDBXh-1">
          <mxGeometry x="166" y="240" width="50" height="50" as="geometry" />
        </mxCell>
        <mxCell id="4gdsQeyCWLUxbPoMDBXh-5" value="`x_2`" style="ellipse;whiteSpace=wrap;html=1;aspect=fixed;fontFamily=Times New Roman;fontSize=17;" vertex="1" parent="4gdsQeyCWLUxbPoMDBXh-1">
          <mxGeometry x="130" y="320" width="50" height="50" as="geometry" />
        </mxCell>
        <mxCell id="4gdsQeyCWLUxbPoMDBXh-6" value="`x_1`" style="ellipse;whiteSpace=wrap;html=1;aspect=fixed;fontFamily=Times New Roman;fontSize=17;" vertex="1" parent="4gdsQeyCWLUxbPoMDBXh-1">
          <mxGeometry x="202" y="320" width="50" height="50" as="geometry" />
        </mxCell>
        <mxCell id="4gdsQeyCWLUxbPoMDBXh-7" style="rounded=0;orthogonalLoop=1;jettySize=auto;html=1;exitX=0;exitY=1;exitDx=0;exitDy=0;entryX=0.5;entryY=0;entryDx=0;entryDy=0;fontFamily=Times New Roman;fontSize=17;" edge="1" parent="4gdsQeyCWLUxbPoMDBXh-1" source="4gdsQeyCWLUxbPoMDBXh-9" target="4gdsQeyCWLUxbPoMDBXh-10">
          <mxGeometry relative="1" as="geometry" />
        </mxCell>
        <mxCell id="4gdsQeyCWLUxbPoMDBXh-8" style="edgeStyle=none;rounded=0;orthogonalLoop=1;jettySize=auto;html=1;exitX=1;exitY=1;exitDx=0;exitDy=0;entryX=0.5;entryY=0;entryDx=0;entryDy=0;fontFamily=Times New Roman;fontSize=17;" edge="1" parent="4gdsQeyCWLUxbPoMDBXh-1" source="4gdsQeyCWLUxbPoMDBXh-9" target="4gdsQeyCWLUxbPoMDBXh-11">
          <mxGeometry relative="1" as="geometry" />
        </mxCell>
        <mxCell id="4gdsQeyCWLUxbPoMDBXh-9" value="" style="ellipse;whiteSpace=wrap;html=1;aspect=fixed;fontFamily=Times New Roman;fontSize=17;" vertex="1" parent="4gdsQeyCWLUxbPoMDBXh-1">
          <mxGeometry x="604" y="240" width="50" height="50" as="geometry" />
        </mxCell>
        <mxCell id="4gdsQeyCWLUxbPoMDBXh-10" value="`x_4`" style="ellipse;whiteSpace=wrap;html=1;aspect=fixed;fontFamily=Times New Roman;fontSize=17;" vertex="1" parent="4gdsQeyCWLUxbPoMDBXh-1">
          <mxGeometry x="570" y="320" width="50" height="50" as="geometry" />
        </mxCell>
        <mxCell id="4gdsQeyCWLUxbPoMDBXh-11" value="`x_3`" style="ellipse;whiteSpace=wrap;html=1;aspect=fixed;fontFamily=Times New Roman;fontSize=17;" vertex="1" parent="4gdsQeyCWLUxbPoMDBXh-1">
          <mxGeometry x="640" y="320" width="50" height="50" as="geometry" />
        </mxCell>
        <mxCell id="4gdsQeyCWLUxbPoMDBXh-12" style="rounded=0;orthogonalLoop=1;jettySize=auto;html=1;exitX=0;exitY=1;exitDx=0;exitDy=0;entryX=0.5;entryY=0;entryDx=0;entryDy=0;fontFamily=Times New Roman;fontSize=17;" edge="1" parent="4gdsQeyCWLUxbPoMDBXh-1" source="4gdsQeyCWLUxbPoMDBXh-14" target="4gdsQeyCWLUxbPoMDBXh-15">
          <mxGeometry relative="1" as="geometry" />
        </mxCell>
        <mxCell id="4gdsQeyCWLUxbPoMDBXh-13" style="edgeStyle=none;rounded=0;orthogonalLoop=1;jettySize=auto;html=1;exitX=1;exitY=1;exitDx=0;exitDy=0;entryX=0.5;entryY=0;entryDx=0;entryDy=0;fontFamily=Times New Roman;fontSize=17;" edge="1" parent="4gdsQeyCWLUxbPoMDBXh-1" source="4gdsQeyCWLUxbPoMDBXh-14" target="4gdsQeyCWLUxbPoMDBXh-16">
          <mxGeometry relative="1" as="geometry" />
        </mxCell>
        <mxCell id="4gdsQeyCWLUxbPoMDBXh-14" value="" style="ellipse;whiteSpace=wrap;html=1;aspect=fixed;fontFamily=Times New Roman;fontSize=17;" vertex="1" parent="4gdsQeyCWLUxbPoMDBXh-1">
          <mxGeometry x="743" y="240" width="50" height="50" as="geometry" />
        </mxCell>
        <mxCell id="4gdsQeyCWLUxbPoMDBXh-15" value="`x_2`" style="ellipse;whiteSpace=wrap;html=1;aspect=fixed;fontFamily=Times New Roman;fontSize=17;" vertex="1" parent="4gdsQeyCWLUxbPoMDBXh-1">
          <mxGeometry x="710" y="320" width="50" height="50" as="geometry" />
        </mxCell>
        <mxCell id="4gdsQeyCWLUxbPoMDBXh-16" value="`x_1`" style="ellipse;whiteSpace=wrap;html=1;aspect=fixed;fontFamily=Times New Roman;fontSize=17;" vertex="1" parent="4gdsQeyCWLUxbPoMDBXh-1">
          <mxGeometry x="780" y="320" width="50" height="50" as="geometry" />
        </mxCell>
        <mxCell id="4gdsQeyCWLUxbPoMDBXh-17" style="edgeStyle=none;rounded=0;orthogonalLoop=1;jettySize=auto;html=1;exitX=0;exitY=1;exitDx=0;exitDy=0;fontFamily=Times New Roman;fontSize=17;" edge="1" parent="4gdsQeyCWLUxbPoMDBXh-1" source="4gdsQeyCWLUxbPoMDBXh-19" target="4gdsQeyCWLUxbPoMDBXh-9">
          <mxGeometry relative="1" as="geometry" />
        </mxCell>
        <mxCell id="4gdsQeyCWLUxbPoMDBXh-18" style="edgeStyle=none;rounded=0;orthogonalLoop=1;jettySize=auto;html=1;exitX=1;exitY=1;exitDx=0;exitDy=0;entryX=0;entryY=0;entryDx=0;entryDy=0;fontFamily=Times New Roman;fontSize=17;" edge="1" parent="4gdsQeyCWLUxbPoMDBXh-1" source="4gdsQeyCWLUxbPoMDBXh-19" target="4gdsQeyCWLUxbPoMDBXh-14">
          <mxGeometry relative="1" as="geometry" />
        </mxCell>
        <mxCell id="4gdsQeyCWLUxbPoMDBXh-19" value="`t_2`" style="ellipse;whiteSpace=wrap;html=1;aspect=fixed;fontFamily=Times New Roman;fontSize=17;" vertex="1" parent="4gdsQeyCWLUxbPoMDBXh-1">
          <mxGeometry x="672" y="150" width="50" height="50" as="geometry" />
        </mxCell>
        <mxCell id="Rryf_m84a9PEZuCalgcF-0" value="`x_1`" style="ellipse;whiteSpace=wrap;html=1;aspect=fixed;fontFamily=Times New Roman;fontSize=17;" vertex="1" parent="4gdsQeyCWLUxbPoMDBXh-1">
          <mxGeometry x="25" y="320" width="50" height="50" as="geometry" />
        </mxCell>
        <mxCell id="Rryf_m84a9PEZuCalgcF-1" value="`(a)`" style="text;html=1;strokeColor=none;fillColor=none;align=center;verticalAlign=middle;whiteSpace=wrap;rounded=0;fontFamily=Times New Roman;fontSize=17;" vertex="1" parent="4gdsQeyCWLUxbPoMDBXh-1">
          <mxGeometry x="15" y="400" width="60" height="30" as="geometry" />
        </mxCell>
        <mxCell id="Rryf_m84a9PEZuCalgcF-2" value="`(b)`" style="text;html=1;strokeColor=none;fillColor=none;align=center;verticalAlign=middle;whiteSpace=wrap;rounded=0;fontFamily=Times New Roman;fontSize=17;" vertex="1" parent="4gdsQeyCWLUxbPoMDBXh-1">
          <mxGeometry x="160" y="400" width="60" height="30" as="geometry" />
        </mxCell>
        <mxCell id="Rryf_m84a9PEZuCalgcF-3" style="rounded=0;orthogonalLoop=1;jettySize=auto;html=1;exitX=0;exitY=1;exitDx=0;exitDy=0;entryX=0.5;entryY=0;entryDx=0;entryDy=0;fontFamily=Times New Roman;fontSize=17;" edge="1" source="Rryf_m84a9PEZuCalgcF-5" target="Rryf_m84a9PEZuCalgcF-6" parent="4gdsQeyCWLUxbPoMDBXh-1">
          <mxGeometry relative="1" as="geometry" />
        </mxCell>
        <mxCell id="Rryf_m84a9PEZuCalgcF-4" style="edgeStyle=none;rounded=0;orthogonalLoop=1;jettySize=auto;html=1;exitX=1;exitY=1;exitDx=0;exitDy=0;entryX=0.5;entryY=0;entryDx=0;entryDy=0;fontFamily=Times New Roman;fontSize=17;" edge="1" source="Rryf_m84a9PEZuCalgcF-5" target="Rryf_m84a9PEZuCalgcF-7" parent="4gdsQeyCWLUxbPoMDBXh-1">
          <mxGeometry relative="1" as="geometry" />
        </mxCell>
        <mxCell id="Rryf_m84a9PEZuCalgcF-5" value="`t_1`" style="ellipse;whiteSpace=wrap;html=1;aspect=fixed;fontFamily=Times New Roman;fontSize=17;" vertex="1" parent="4gdsQeyCWLUxbPoMDBXh-1">
          <mxGeometry x="414" y="240" width="50" height="50" as="geometry" />
        </mxCell>
        <mxCell id="Rryf_m84a9PEZuCalgcF-6" value="`x_2`" style="ellipse;whiteSpace=wrap;html=1;aspect=fixed;fontFamily=Times New Roman;fontSize=17;" vertex="1" parent="4gdsQeyCWLUxbPoMDBXh-1">
          <mxGeometry x="380" y="320" width="50" height="50" as="geometry" />
        </mxCell>
        <mxCell id="Rryf_m84a9PEZuCalgcF-7" value="`x_1`" style="ellipse;whiteSpace=wrap;html=1;aspect=fixed;fontFamily=Times New Roman;fontSize=17;" vertex="1" parent="4gdsQeyCWLUxbPoMDBXh-1">
          <mxGeometry x="450" y="320" width="50" height="50" as="geometry" />
        </mxCell>
        <mxCell id="Rryf_m84a9PEZuCalgcF-8" value="`(c)`" style="text;html=1;strokeColor=none;fillColor=none;align=center;verticalAlign=middle;whiteSpace=wrap;rounded=0;fontFamily=Times New Roman;fontSize=17;" vertex="1" parent="4gdsQeyCWLUxbPoMDBXh-1">
          <mxGeometry x="380" y="400" width="60" height="30" as="geometry" />
        </mxCell>
        <mxCell id="Rryf_m84a9PEZuCalgcF-9" value="`x_3`" style="ellipse;whiteSpace=wrap;html=1;aspect=fixed;fontFamily=Times New Roman;fontSize=17;" vertex="1" parent="4gdsQeyCWLUxbPoMDBXh-1">
          <mxGeometry x="310" y="320" width="50" height="50" as="geometry" />
        </mxCell>
        <mxCell id="Rryf_m84a9PEZuCalgcF-10" value="`(d)`" style="text;html=1;strokeColor=none;fillColor=none;align=center;verticalAlign=middle;whiteSpace=wrap;rounded=0;fontFamily=Times New Roman;fontSize=17;" vertex="1" parent="4gdsQeyCWLUxbPoMDBXh-1">
          <mxGeometry x="670" y="400" width="60" height="30" as="geometry" />
        </mxCell>
        <mxCell id="Rryf_m84a9PEZuCalgcF-11" style="rounded=0;orthogonalLoop=1;jettySize=auto;html=1;exitX=0;exitY=1;exitDx=0;exitDy=0;entryX=0.5;entryY=0;entryDx=0;entryDy=0;fontFamily=Times New Roman;fontSize=17;" edge="1" source="Rryf_m84a9PEZuCalgcF-13" target="Rryf_m84a9PEZuCalgcF-14" parent="4gdsQeyCWLUxbPoMDBXh-1">
          <mxGeometry relative="1" as="geometry" />
        </mxCell>
        <mxCell id="Rryf_m84a9PEZuCalgcF-12" style="edgeStyle=none;rounded=0;orthogonalLoop=1;jettySize=auto;html=1;exitX=1;exitY=1;exitDx=0;exitDy=0;entryX=0.5;entryY=0;entryDx=0;entryDy=0;fontFamily=Times New Roman;fontSize=17;" edge="1" source="Rryf_m84a9PEZuCalgcF-13" target="Rryf_m84a9PEZuCalgcF-15" parent="4gdsQeyCWLUxbPoMDBXh-1">
          <mxGeometry relative="1" as="geometry" />
        </mxCell>
        <mxCell id="Rryf_m84a9PEZuCalgcF-13" value="" style="ellipse;whiteSpace=wrap;html=1;aspect=fixed;fontFamily=Times New Roman;fontSize=17;" vertex="1" parent="4gdsQeyCWLUxbPoMDBXh-1">
          <mxGeometry x="134" y="550" width="50" height="50" as="geometry" />
        </mxCell>
        <mxCell id="Rryf_m84a9PEZuCalgcF-14" value="`x_4`" style="ellipse;whiteSpace=wrap;html=1;aspect=fixed;fontFamily=Times New Roman;fontSize=17;" vertex="1" parent="4gdsQeyCWLUxbPoMDBXh-1">
          <mxGeometry x="100" y="630" width="50" height="50" as="geometry" />
        </mxCell>
        <mxCell id="Rryf_m84a9PEZuCalgcF-15" value="`x_3`" style="ellipse;whiteSpace=wrap;html=1;aspect=fixed;fontFamily=Times New Roman;fontSize=17;" vertex="1" parent="4gdsQeyCWLUxbPoMDBXh-1">
          <mxGeometry x="170" y="630" width="50" height="50" as="geometry" />
        </mxCell>
        <mxCell id="Rryf_m84a9PEZuCalgcF-16" style="rounded=0;orthogonalLoop=1;jettySize=auto;html=1;exitX=0;exitY=1;exitDx=0;exitDy=0;entryX=0.5;entryY=0;entryDx=0;entryDy=0;fontFamily=Times New Roman;fontSize=17;" edge="1" source="Rryf_m84a9PEZuCalgcF-18" target="Rryf_m84a9PEZuCalgcF-19" parent="4gdsQeyCWLUxbPoMDBXh-1">
          <mxGeometry relative="1" as="geometry" />
        </mxCell>
        <mxCell id="Rryf_m84a9PEZuCalgcF-17" style="edgeStyle=none;rounded=0;orthogonalLoop=1;jettySize=auto;html=1;exitX=1;exitY=1;exitDx=0;exitDy=0;entryX=0.5;entryY=0;entryDx=0;entryDy=0;fontFamily=Times New Roman;fontSize=17;" edge="1" source="Rryf_m84a9PEZuCalgcF-18" target="Rryf_m84a9PEZuCalgcF-20" parent="4gdsQeyCWLUxbPoMDBXh-1">
          <mxGeometry relative="1" as="geometry" />
        </mxCell>
        <mxCell id="Rryf_m84a9PEZuCalgcF-18" value="" style="ellipse;whiteSpace=wrap;html=1;aspect=fixed;fontFamily=Times New Roman;fontSize=17;" vertex="1" parent="4gdsQeyCWLUxbPoMDBXh-1">
          <mxGeometry x="273" y="550" width="50" height="50" as="geometry" />
        </mxCell>
        <mxCell id="Rryf_m84a9PEZuCalgcF-19" value="`x_2`" style="ellipse;whiteSpace=wrap;html=1;aspect=fixed;fontFamily=Times New Roman;fontSize=17;" vertex="1" parent="4gdsQeyCWLUxbPoMDBXh-1">
          <mxGeometry x="240" y="630" width="50" height="50" as="geometry" />
        </mxCell>
        <mxCell id="Rryf_m84a9PEZuCalgcF-20" value="`x_1`" style="ellipse;whiteSpace=wrap;html=1;aspect=fixed;fontFamily=Times New Roman;fontSize=17;" vertex="1" parent="4gdsQeyCWLUxbPoMDBXh-1">
          <mxGeometry x="310" y="630" width="50" height="50" as="geometry" />
        </mxCell>
        <mxCell id="Rryf_m84a9PEZuCalgcF-21" style="edgeStyle=none;rounded=0;orthogonalLoop=1;jettySize=auto;html=1;exitX=0;exitY=1;exitDx=0;exitDy=0;fontFamily=Times New Roman;fontSize=17;" edge="1" source="Rryf_m84a9PEZuCalgcF-23" target="Rryf_m84a9PEZuCalgcF-13" parent="4gdsQeyCWLUxbPoMDBXh-1">
          <mxGeometry relative="1" as="geometry" />
        </mxCell>
        <mxCell id="Rryf_m84a9PEZuCalgcF-22" style="edgeStyle=none;rounded=0;orthogonalLoop=1;jettySize=auto;html=1;exitX=1;exitY=1;exitDx=0;exitDy=0;entryX=0;entryY=0;entryDx=0;entryDy=0;fontFamily=Times New Roman;fontSize=17;" edge="1" source="Rryf_m84a9PEZuCalgcF-23" target="Rryf_m84a9PEZuCalgcF-18" parent="4gdsQeyCWLUxbPoMDBXh-1">
          <mxGeometry relative="1" as="geometry" />
        </mxCell>
        <mxCell id="Rryf_m84a9PEZuCalgcF-23" value="`t_2`" style="ellipse;whiteSpace=wrap;html=1;aspect=fixed;fontFamily=Times New Roman;fontSize=17;" vertex="1" parent="4gdsQeyCWLUxbPoMDBXh-1">
          <mxGeometry x="202" y="460" width="50" height="50" as="geometry" />
        </mxCell>
        <mxCell id="Rryf_m84a9PEZuCalgcF-24" value="`(e)`" style="text;html=1;strokeColor=none;fillColor=none;align=center;verticalAlign=middle;whiteSpace=wrap;rounded=0;fontFamily=Times New Roman;fontSize=17;" vertex="1" parent="4gdsQeyCWLUxbPoMDBXh-1">
          <mxGeometry x="161" y="710" width="60" height="30" as="geometry" />
        </mxCell>
        <mxCell id="Rryf_m84a9PEZuCalgcF-25" value="`x_5`" style="ellipse;whiteSpace=wrap;html=1;aspect=fixed;fontFamily=Times New Roman;fontSize=17;" vertex="1" parent="4gdsQeyCWLUxbPoMDBXh-1">
          <mxGeometry x="35" y="630" width="50" height="50" as="geometry" />
        </mxCell>
        <mxCell id="Rryf_m84a9PEZuCalgcF-26" style="rounded=0;orthogonalLoop=1;jettySize=auto;html=1;exitX=0;exitY=1;exitDx=0;exitDy=0;entryX=0.5;entryY=0;entryDx=0;entryDy=0;fontFamily=Times New Roman;fontSize=17;" edge="1" source="Rryf_m84a9PEZuCalgcF-28" target="Rryf_m84a9PEZuCalgcF-29" parent="4gdsQeyCWLUxbPoMDBXh-1">
          <mxGeometry relative="1" as="geometry" />
        </mxCell>
        <mxCell id="Rryf_m84a9PEZuCalgcF-27" style="edgeStyle=none;rounded=0;orthogonalLoop=1;jettySize=auto;html=1;exitX=1;exitY=1;exitDx=0;exitDy=0;entryX=0.5;entryY=0;entryDx=0;entryDy=0;fontFamily=Times New Roman;fontSize=17;" edge="1" source="Rryf_m84a9PEZuCalgcF-28" target="Rryf_m84a9PEZuCalgcF-30" parent="4gdsQeyCWLUxbPoMDBXh-1">
          <mxGeometry relative="1" as="geometry" />
        </mxCell>
        <mxCell id="Rryf_m84a9PEZuCalgcF-28" value="" style="ellipse;whiteSpace=wrap;html=1;aspect=fixed;fontFamily=Times New Roman;fontSize=17;" vertex="1" parent="4gdsQeyCWLUxbPoMDBXh-1">
          <mxGeometry x="594" y="550" width="50" height="50" as="geometry" />
        </mxCell>
        <mxCell id="Rryf_m84a9PEZuCalgcF-29" value="`x_4`" style="ellipse;whiteSpace=wrap;html=1;aspect=fixed;fontFamily=Times New Roman;fontSize=17;" vertex="1" parent="4gdsQeyCWLUxbPoMDBXh-1">
          <mxGeometry x="560" y="630" width="50" height="50" as="geometry" />
        </mxCell>
        <mxCell id="Rryf_m84a9PEZuCalgcF-30" value="`x_3`" style="ellipse;whiteSpace=wrap;html=1;aspect=fixed;fontFamily=Times New Roman;fontSize=17;" vertex="1" parent="4gdsQeyCWLUxbPoMDBXh-1">
          <mxGeometry x="630" y="630" width="50" height="50" as="geometry" />
        </mxCell>
        <mxCell id="Rryf_m84a9PEZuCalgcF-31" style="rounded=0;orthogonalLoop=1;jettySize=auto;html=1;exitX=0;exitY=1;exitDx=0;exitDy=0;entryX=0.5;entryY=0;entryDx=0;entryDy=0;fontFamily=Times New Roman;fontSize=17;" edge="1" source="Rryf_m84a9PEZuCalgcF-33" target="Rryf_m84a9PEZuCalgcF-34" parent="4gdsQeyCWLUxbPoMDBXh-1">
          <mxGeometry relative="1" as="geometry" />
        </mxCell>
        <mxCell id="Rryf_m84a9PEZuCalgcF-32" style="edgeStyle=none;rounded=0;orthogonalLoop=1;jettySize=auto;html=1;exitX=1;exitY=1;exitDx=0;exitDy=0;entryX=0.5;entryY=0;entryDx=0;entryDy=0;fontFamily=Times New Roman;fontSize=17;" edge="1" source="Rryf_m84a9PEZuCalgcF-33" target="Rryf_m84a9PEZuCalgcF-35" parent="4gdsQeyCWLUxbPoMDBXh-1">
          <mxGeometry relative="1" as="geometry" />
        </mxCell>
        <mxCell id="Rryf_m84a9PEZuCalgcF-33" value="" style="ellipse;whiteSpace=wrap;html=1;aspect=fixed;fontFamily=Times New Roman;fontSize=17;" vertex="1" parent="4gdsQeyCWLUxbPoMDBXh-1">
          <mxGeometry x="733" y="550" width="50" height="50" as="geometry" />
        </mxCell>
        <mxCell id="Rryf_m84a9PEZuCalgcF-34" value="`x_2`" style="ellipse;whiteSpace=wrap;html=1;aspect=fixed;fontFamily=Times New Roman;fontSize=17;" vertex="1" parent="4gdsQeyCWLUxbPoMDBXh-1">
          <mxGeometry x="700" y="630" width="50" height="50" as="geometry" />
        </mxCell>
        <mxCell id="Rryf_m84a9PEZuCalgcF-35" value="`x_1`" style="ellipse;whiteSpace=wrap;html=1;aspect=fixed;fontFamily=Times New Roman;fontSize=17;" vertex="1" parent="4gdsQeyCWLUxbPoMDBXh-1">
          <mxGeometry x="770" y="630" width="50" height="50" as="geometry" />
        </mxCell>
        <mxCell id="Rryf_m84a9PEZuCalgcF-36" style="edgeStyle=none;rounded=0;orthogonalLoop=1;jettySize=auto;html=1;exitX=0;exitY=1;exitDx=0;exitDy=0;fontFamily=Times New Roman;fontSize=17;" edge="1" source="Rryf_m84a9PEZuCalgcF-38" target="Rryf_m84a9PEZuCalgcF-28" parent="4gdsQeyCWLUxbPoMDBXh-1">
          <mxGeometry relative="1" as="geometry" />
        </mxCell>
        <mxCell id="Rryf_m84a9PEZuCalgcF-37" style="edgeStyle=none;rounded=0;orthogonalLoop=1;jettySize=auto;html=1;exitX=1;exitY=1;exitDx=0;exitDy=0;entryX=0;entryY=0;entryDx=0;entryDy=0;fontFamily=Times New Roman;fontSize=17;" edge="1" source="Rryf_m84a9PEZuCalgcF-38" target="Rryf_m84a9PEZuCalgcF-33" parent="4gdsQeyCWLUxbPoMDBXh-1">
          <mxGeometry relative="1" as="geometry" />
        </mxCell>
        <mxCell id="Rryf_m84a9PEZuCalgcF-38" value="`t_2`" style="ellipse;whiteSpace=wrap;html=1;aspect=fixed;fontFamily=Times New Roman;fontSize=17;" vertex="1" parent="4gdsQeyCWLUxbPoMDBXh-1">
          <mxGeometry x="662" y="460" width="50" height="50" as="geometry" />
        </mxCell>
        <mxCell id="Rryf_m84a9PEZuCalgcF-39" value="`(f)`" style="text;html=1;strokeColor=none;fillColor=none;align=center;verticalAlign=middle;whiteSpace=wrap;rounded=0;fontFamily=Times New Roman;fontSize=17;" vertex="1" parent="4gdsQeyCWLUxbPoMDBXh-1">
          <mxGeometry x="589" y="710" width="60" height="30" as="geometry" />
        </mxCell>
        <mxCell id="Rryf_m84a9PEZuCalgcF-41" style="rounded=0;orthogonalLoop=1;jettySize=auto;html=1;exitX=0;exitY=1;exitDx=0;exitDy=0;entryX=0.5;entryY=0;entryDx=0;entryDy=0;fontFamily=Times New Roman;fontSize=17;" edge="1" source="Rryf_m84a9PEZuCalgcF-43" target="Rryf_m84a9PEZuCalgcF-44" parent="4gdsQeyCWLUxbPoMDBXh-1">
          <mxGeometry relative="1" as="geometry" />
        </mxCell>
        <mxCell id="Rryf_m84a9PEZuCalgcF-42" style="edgeStyle=none;rounded=0;orthogonalLoop=1;jettySize=auto;html=1;exitX=1;exitY=1;exitDx=0;exitDy=0;entryX=0.5;entryY=0;entryDx=0;entryDy=0;fontFamily=Times New Roman;fontSize=17;" edge="1" source="Rryf_m84a9PEZuCalgcF-43" target="Rryf_m84a9PEZuCalgcF-45" parent="4gdsQeyCWLUxbPoMDBXh-1">
          <mxGeometry relative="1" as="geometry" />
        </mxCell>
        <mxCell id="Rryf_m84a9PEZuCalgcF-43" value="`t_1`" style="ellipse;whiteSpace=wrap;html=1;aspect=fixed;fontFamily=Times New Roman;fontSize=17;" vertex="1" parent="4gdsQeyCWLUxbPoMDBXh-1">
          <mxGeometry x="461" y="550" width="50" height="50" as="geometry" />
        </mxCell>
        <mxCell id="Rryf_m84a9PEZuCalgcF-44" value="`x_6`" style="ellipse;whiteSpace=wrap;html=1;aspect=fixed;fontFamily=Times New Roman;fontSize=17;" vertex="1" parent="4gdsQeyCWLUxbPoMDBXh-1">
          <mxGeometry x="425" y="630" width="50" height="50" as="geometry" />
        </mxCell>
        <mxCell id="Rryf_m84a9PEZuCalgcF-45" value="`x_5`" style="ellipse;whiteSpace=wrap;html=1;aspect=fixed;fontFamily=Times New Roman;fontSize=17;" vertex="1" parent="4gdsQeyCWLUxbPoMDBXh-1">
          <mxGeometry x="497" y="630" width="50" height="50" as="geometry" />
        </mxCell>
      </root>
    </mxGraphModel>
  </diagram>
  <diagram name="bralist remove" id="qqKsnYekiqqnG2vTAeYj">
    <mxGraphModel dx="1159" dy="784" grid="1" gridSize="10" guides="1" tooltips="1" connect="1" arrows="1" fold="1" page="1" pageScale="1" pageWidth="850" pageHeight="1100" math="1" shadow="0">
      <root>
        <mxCell id="hr858uaW3ipQhJVqzVd_-0" />
        <mxCell id="hr858uaW3ipQhJVqzVd_-1" parent="hr858uaW3ipQhJVqzVd_-0" />
        <mxCell id="hr858uaW3ipQhJVqzVd_-7" style="rounded=0;orthogonalLoop=1;jettySize=auto;html=1;exitX=0;exitY=1;exitDx=0;exitDy=0;entryX=0.5;entryY=0;entryDx=0;entryDy=0;fontFamily=Times New Roman;fontSize=17;" edge="1" parent="hr858uaW3ipQhJVqzVd_-1" source="hr858uaW3ipQhJVqzVd_-9" target="hr858uaW3ipQhJVqzVd_-10">
          <mxGeometry relative="1" as="geometry" />
        </mxCell>
        <mxCell id="hr858uaW3ipQhJVqzVd_-8" style="edgeStyle=none;rounded=0;orthogonalLoop=1;jettySize=auto;html=1;exitX=1;exitY=1;exitDx=0;exitDy=0;entryX=0.5;entryY=0;entryDx=0;entryDy=0;fontFamily=Times New Roman;fontSize=17;" edge="1" parent="hr858uaW3ipQhJVqzVd_-1" source="hr858uaW3ipQhJVqzVd_-9" target="hr858uaW3ipQhJVqzVd_-11">
          <mxGeometry relative="1" as="geometry" />
        </mxCell>
        <mxCell id="hr858uaW3ipQhJVqzVd_-9" value="" style="ellipse;whiteSpace=wrap;html=1;aspect=fixed;fontFamily=Times New Roman;fontSize=17;" vertex="1" parent="hr858uaW3ipQhJVqzVd_-1">
          <mxGeometry x="396" y="550" width="50" height="50" as="geometry" />
        </mxCell>
        <mxCell id="hr858uaW3ipQhJVqzVd_-10" value="`x_4`" style="ellipse;whiteSpace=wrap;html=1;aspect=fixed;fontFamily=Times New Roman;fontSize=17;" vertex="1" parent="hr858uaW3ipQhJVqzVd_-1">
          <mxGeometry x="362" y="630" width="50" height="50" as="geometry" />
        </mxCell>
        <mxCell id="hr858uaW3ipQhJVqzVd_-11" value="`x_3`" style="ellipse;whiteSpace=wrap;html=1;aspect=fixed;fontFamily=Times New Roman;fontSize=17;" vertex="1" parent="hr858uaW3ipQhJVqzVd_-1">
          <mxGeometry x="432" y="630" width="50" height="50" as="geometry" />
        </mxCell>
        <mxCell id="hr858uaW3ipQhJVqzVd_-12" style="rounded=0;orthogonalLoop=1;jettySize=auto;html=1;exitX=0;exitY=1;exitDx=0;exitDy=0;entryX=0.5;entryY=0;entryDx=0;entryDy=0;fontFamily=Times New Roman;fontSize=17;" edge="1" parent="hr858uaW3ipQhJVqzVd_-1" source="hr858uaW3ipQhJVqzVd_-14" target="hr858uaW3ipQhJVqzVd_-15">
          <mxGeometry relative="1" as="geometry" />
        </mxCell>
        <mxCell id="hr858uaW3ipQhJVqzVd_-13" style="edgeStyle=none;rounded=0;orthogonalLoop=1;jettySize=auto;html=1;exitX=1;exitY=1;exitDx=0;exitDy=0;entryX=0.5;entryY=0;entryDx=0;entryDy=0;fontFamily=Times New Roman;fontSize=17;" edge="1" parent="hr858uaW3ipQhJVqzVd_-1" source="hr858uaW3ipQhJVqzVd_-14" target="hr858uaW3ipQhJVqzVd_-16">
          <mxGeometry relative="1" as="geometry" />
        </mxCell>
        <mxCell id="hr858uaW3ipQhJVqzVd_-14" value="" style="ellipse;whiteSpace=wrap;html=1;aspect=fixed;fontFamily=Times New Roman;fontSize=17;" vertex="1" parent="hr858uaW3ipQhJVqzVd_-1">
          <mxGeometry x="535" y="550" width="50" height="50" as="geometry" />
        </mxCell>
        <mxCell id="hr858uaW3ipQhJVqzVd_-15" value="`x_2`" style="ellipse;whiteSpace=wrap;html=1;aspect=fixed;fontFamily=Times New Roman;fontSize=17;" vertex="1" parent="hr858uaW3ipQhJVqzVd_-1">
          <mxGeometry x="502" y="630" width="50" height="50" as="geometry" />
        </mxCell>
        <mxCell id="hr858uaW3ipQhJVqzVd_-16" value="`x_1`" style="ellipse;whiteSpace=wrap;html=1;aspect=fixed;fontFamily=Times New Roman;fontSize=17;" vertex="1" parent="hr858uaW3ipQhJVqzVd_-1">
          <mxGeometry x="572" y="630" width="50" height="50" as="geometry" />
        </mxCell>
        <mxCell id="hr858uaW3ipQhJVqzVd_-17" style="edgeStyle=none;rounded=0;orthogonalLoop=1;jettySize=auto;html=1;exitX=0;exitY=1;exitDx=0;exitDy=0;fontFamily=Times New Roman;fontSize=17;" edge="1" parent="hr858uaW3ipQhJVqzVd_-1" source="hr858uaW3ipQhJVqzVd_-19" target="hr858uaW3ipQhJVqzVd_-9">
          <mxGeometry relative="1" as="geometry" />
        </mxCell>
        <mxCell id="hr858uaW3ipQhJVqzVd_-18" style="edgeStyle=none;rounded=0;orthogonalLoop=1;jettySize=auto;html=1;exitX=1;exitY=1;exitDx=0;exitDy=0;entryX=0;entryY=0;entryDx=0;entryDy=0;fontFamily=Times New Roman;fontSize=17;" edge="1" parent="hr858uaW3ipQhJVqzVd_-1" source="hr858uaW3ipQhJVqzVd_-19" target="hr858uaW3ipQhJVqzVd_-14">
          <mxGeometry relative="1" as="geometry" />
        </mxCell>
        <mxCell id="hr858uaW3ipQhJVqzVd_-19" value="`t_2`" style="ellipse;whiteSpace=wrap;html=1;aspect=fixed;fontFamily=Times New Roman;fontSize=17;" vertex="1" parent="hr858uaW3ipQhJVqzVd_-1">
          <mxGeometry x="464" y="460" width="50" height="50" as="geometry" />
        </mxCell>
        <mxCell id="hr858uaW3ipQhJVqzVd_-23" style="rounded=0;orthogonalLoop=1;jettySize=auto;html=1;exitX=0;exitY=1;exitDx=0;exitDy=0;entryX=0.5;entryY=0;entryDx=0;entryDy=0;fontFamily=Times New Roman;fontSize=17;" edge="1" parent="hr858uaW3ipQhJVqzVd_-1" source="hr858uaW3ipQhJVqzVd_-25" target="hr858uaW3ipQhJVqzVd_-26">
          <mxGeometry relative="1" as="geometry" />
        </mxCell>
        <mxCell id="hr858uaW3ipQhJVqzVd_-24" style="edgeStyle=none;rounded=0;orthogonalLoop=1;jettySize=auto;html=1;exitX=1;exitY=1;exitDx=0;exitDy=0;entryX=0.5;entryY=0;entryDx=0;entryDy=0;fontFamily=Times New Roman;fontSize=17;" edge="1" parent="hr858uaW3ipQhJVqzVd_-1" source="hr858uaW3ipQhJVqzVd_-25" target="hr858uaW3ipQhJVqzVd_-27">
          <mxGeometry relative="1" as="geometry" />
        </mxCell>
        <mxCell id="hr858uaW3ipQhJVqzVd_-25" value="`t_1`" style="ellipse;whiteSpace=wrap;html=1;aspect=fixed;fontFamily=Times New Roman;fontSize=17;" vertex="1" parent="hr858uaW3ipQhJVqzVd_-1">
          <mxGeometry x="760" y="550" width="50" height="50" as="geometry" />
        </mxCell>
        <mxCell id="hr858uaW3ipQhJVqzVd_-26" value="`x_2`" style="ellipse;whiteSpace=wrap;html=1;aspect=fixed;fontFamily=Times New Roman;fontSize=17;" vertex="1" parent="hr858uaW3ipQhJVqzVd_-1">
          <mxGeometry x="726" y="630" width="50" height="50" as="geometry" />
        </mxCell>
        <mxCell id="hr858uaW3ipQhJVqzVd_-27" value="`x_1`" style="ellipse;whiteSpace=wrap;html=1;aspect=fixed;fontFamily=Times New Roman;fontSize=17;" vertex="1" parent="hr858uaW3ipQhJVqzVd_-1">
          <mxGeometry x="796" y="630" width="50" height="50" as="geometry" />
        </mxCell>
        <mxCell id="hr858uaW3ipQhJVqzVd_-28" value="`(c)`" style="text;html=1;strokeColor=none;fillColor=none;align=center;verticalAlign=middle;whiteSpace=wrap;rounded=0;fontFamily=Times New Roman;fontSize=17;" vertex="1" parent="hr858uaW3ipQhJVqzVd_-1">
          <mxGeometry x="726" y="710" width="60" height="30" as="geometry" />
        </mxCell>
        <mxCell id="hr858uaW3ipQhJVqzVd_-29" value="`x_3`" style="ellipse;whiteSpace=wrap;html=1;aspect=fixed;fontFamily=Times New Roman;fontSize=17;" vertex="1" parent="hr858uaW3ipQhJVqzVd_-1">
          <mxGeometry x="656" y="630" width="50" height="50" as="geometry" />
        </mxCell>
        <mxCell id="hr858uaW3ipQhJVqzVd_-30" value="`(b)`" style="text;html=1;strokeColor=none;fillColor=none;align=center;verticalAlign=middle;whiteSpace=wrap;rounded=0;fontFamily=Times New Roman;fontSize=17;" vertex="1" parent="hr858uaW3ipQhJVqzVd_-1">
          <mxGeometry x="462" y="710" width="60" height="30" as="geometry" />
        </mxCell>
        <mxCell id="hr858uaW3ipQhJVqzVd_-31" style="rounded=0;orthogonalLoop=1;jettySize=auto;html=1;exitX=0;exitY=1;exitDx=0;exitDy=0;entryX=0.5;entryY=0;entryDx=0;entryDy=0;fontFamily=Times New Roman;fontSize=17;" edge="1" parent="hr858uaW3ipQhJVqzVd_-1" source="hr858uaW3ipQhJVqzVd_-33" target="hr858uaW3ipQhJVqzVd_-34">
          <mxGeometry relative="1" as="geometry" />
        </mxCell>
        <mxCell id="hr858uaW3ipQhJVqzVd_-32" style="edgeStyle=none;rounded=0;orthogonalLoop=1;jettySize=auto;html=1;exitX=1;exitY=1;exitDx=0;exitDy=0;entryX=0.5;entryY=0;entryDx=0;entryDy=0;fontFamily=Times New Roman;fontSize=17;" edge="1" parent="hr858uaW3ipQhJVqzVd_-1" source="hr858uaW3ipQhJVqzVd_-33" target="hr858uaW3ipQhJVqzVd_-35">
          <mxGeometry relative="1" as="geometry" />
        </mxCell>
        <mxCell id="hr858uaW3ipQhJVqzVd_-33" value="" style="ellipse;whiteSpace=wrap;html=1;aspect=fixed;fontFamily=Times New Roman;fontSize=17;" vertex="1" parent="hr858uaW3ipQhJVqzVd_-1">
          <mxGeometry x="99" y="550" width="50" height="50" as="geometry" />
        </mxCell>
        <mxCell id="hr858uaW3ipQhJVqzVd_-34" value="`x_4`" style="ellipse;whiteSpace=wrap;html=1;aspect=fixed;fontFamily=Times New Roman;fontSize=17;" vertex="1" parent="hr858uaW3ipQhJVqzVd_-1">
          <mxGeometry x="65" y="630" width="50" height="50" as="geometry" />
        </mxCell>
        <mxCell id="hr858uaW3ipQhJVqzVd_-35" value="`x_3`" style="ellipse;whiteSpace=wrap;html=1;aspect=fixed;fontFamily=Times New Roman;fontSize=17;" vertex="1" parent="hr858uaW3ipQhJVqzVd_-1">
          <mxGeometry x="135" y="630" width="50" height="50" as="geometry" />
        </mxCell>
        <mxCell id="hr858uaW3ipQhJVqzVd_-36" style="rounded=0;orthogonalLoop=1;jettySize=auto;html=1;exitX=0;exitY=1;exitDx=0;exitDy=0;entryX=0.5;entryY=0;entryDx=0;entryDy=0;fontFamily=Times New Roman;fontSize=17;" edge="1" parent="hr858uaW3ipQhJVqzVd_-1" source="hr858uaW3ipQhJVqzVd_-38" target="hr858uaW3ipQhJVqzVd_-39">
          <mxGeometry relative="1" as="geometry" />
        </mxCell>
        <mxCell id="hr858uaW3ipQhJVqzVd_-37" style="edgeStyle=none;rounded=0;orthogonalLoop=1;jettySize=auto;html=1;exitX=1;exitY=1;exitDx=0;exitDy=0;entryX=0.5;entryY=0;entryDx=0;entryDy=0;fontFamily=Times New Roman;fontSize=17;" edge="1" parent="hr858uaW3ipQhJVqzVd_-1" source="hr858uaW3ipQhJVqzVd_-38" target="hr858uaW3ipQhJVqzVd_-40">
          <mxGeometry relative="1" as="geometry" />
        </mxCell>
        <mxCell id="hr858uaW3ipQhJVqzVd_-38" value="" style="ellipse;whiteSpace=wrap;html=1;aspect=fixed;fontFamily=Times New Roman;fontSize=17;" vertex="1" parent="hr858uaW3ipQhJVqzVd_-1">
          <mxGeometry x="238" y="550" width="50" height="50" as="geometry" />
        </mxCell>
        <mxCell id="hr858uaW3ipQhJVqzVd_-39" value="`x_2`" style="ellipse;whiteSpace=wrap;html=1;aspect=fixed;fontFamily=Times New Roman;fontSize=17;" vertex="1" parent="hr858uaW3ipQhJVqzVd_-1">
          <mxGeometry x="205" y="630" width="50" height="50" as="geometry" />
        </mxCell>
        <mxCell id="hr858uaW3ipQhJVqzVd_-40" value="`x_1`" style="ellipse;whiteSpace=wrap;html=1;aspect=fixed;fontFamily=Times New Roman;fontSize=17;" vertex="1" parent="hr858uaW3ipQhJVqzVd_-1">
          <mxGeometry x="275" y="630" width="50" height="50" as="geometry" />
        </mxCell>
        <mxCell id="hr858uaW3ipQhJVqzVd_-41" style="edgeStyle=none;rounded=0;orthogonalLoop=1;jettySize=auto;html=1;exitX=0;exitY=1;exitDx=0;exitDy=0;fontFamily=Times New Roman;fontSize=17;" edge="1" parent="hr858uaW3ipQhJVqzVd_-1" source="hr858uaW3ipQhJVqzVd_-43" target="hr858uaW3ipQhJVqzVd_-33">
          <mxGeometry relative="1" as="geometry" />
        </mxCell>
        <mxCell id="hr858uaW3ipQhJVqzVd_-42" style="edgeStyle=none;rounded=0;orthogonalLoop=1;jettySize=auto;html=1;exitX=1;exitY=1;exitDx=0;exitDy=0;entryX=0;entryY=0;entryDx=0;entryDy=0;fontFamily=Times New Roman;fontSize=17;" edge="1" parent="hr858uaW3ipQhJVqzVd_-1" source="hr858uaW3ipQhJVqzVd_-43" target="hr858uaW3ipQhJVqzVd_-38">
          <mxGeometry relative="1" as="geometry" />
        </mxCell>
        <mxCell id="hr858uaW3ipQhJVqzVd_-43" value="`t_2`" style="ellipse;whiteSpace=wrap;html=1;aspect=fixed;fontFamily=Times New Roman;fontSize=17;" vertex="1" parent="hr858uaW3ipQhJVqzVd_-1">
          <mxGeometry x="167" y="460" width="50" height="50" as="geometry" />
        </mxCell>
        <mxCell id="hr858uaW3ipQhJVqzVd_-44" value="`(a)`" style="text;html=1;strokeColor=none;fillColor=none;align=center;verticalAlign=middle;whiteSpace=wrap;rounded=0;fontFamily=Times New Roman;fontSize=17;" vertex="1" parent="hr858uaW3ipQhJVqzVd_-1">
          <mxGeometry x="126" y="710" width="60" height="30" as="geometry" />
        </mxCell>
        <mxCell id="hr858uaW3ipQhJVqzVd_-45" value="`x_5`" style="ellipse;whiteSpace=wrap;html=1;aspect=fixed;fontFamily=Times New Roman;fontSize=17;" vertex="1" parent="hr858uaW3ipQhJVqzVd_-1">
          <mxGeometry y="630" width="50" height="50" as="geometry" />
        </mxCell>
      </root>
    </mxGraphModel>
  </diagram>
  <diagram name="bralist index" id="OwLNtjTqQRtfQbS3UjNs">
    <mxGraphModel dx="1159" dy="784" grid="1" gridSize="10" guides="1" tooltips="1" connect="1" arrows="1" fold="1" page="1" pageScale="1" pageWidth="850" pageHeight="1100" math="1" shadow="0">
      <root>
        <mxCell id="vPSU2LEX2CRVvElbRj7A-0" />
        <mxCell id="vPSU2LEX2CRVvElbRj7A-1" parent="vPSU2LEX2CRVvElbRj7A-0" />
        <mxCell id="vPSU2LEX2CRVvElbRj7A-23" style="rounded=0;orthogonalLoop=1;jettySize=auto;html=1;exitX=0;exitY=1;exitDx=0;exitDy=0;entryX=0.5;entryY=0;entryDx=0;entryDy=0;fontFamily=Times New Roman;fontSize=17;" edge="1" parent="vPSU2LEX2CRVvElbRj7A-1" source="vPSU2LEX2CRVvElbRj7A-25" target="vPSU2LEX2CRVvElbRj7A-26">
          <mxGeometry relative="1" as="geometry" />
        </mxCell>
        <mxCell id="vPSU2LEX2CRVvElbRj7A-24" style="edgeStyle=none;rounded=0;orthogonalLoop=1;jettySize=auto;html=1;exitX=1;exitY=1;exitDx=0;exitDy=0;entryX=0.5;entryY=0;entryDx=0;entryDy=0;fontFamily=Times New Roman;fontSize=17;" edge="1" parent="vPSU2LEX2CRVvElbRj7A-1" source="vPSU2LEX2CRVvElbRj7A-25" target="vPSU2LEX2CRVvElbRj7A-27">
          <mxGeometry relative="1" as="geometry" />
        </mxCell>
        <mxCell id="vPSU2LEX2CRVvElbRj7A-25" value="$$left(t_2)$$" style="ellipse;whiteSpace=wrap;html=1;aspect=fixed;fontFamily=Times New Roman;fontSize=17;" vertex="1" parent="vPSU2LEX2CRVvElbRj7A-1">
          <mxGeometry x="155" y="330" width="74" height="74" as="geometry" />
        </mxCell>
        <mxCell id="vPSU2LEX2CRVvElbRj7A-26" value="`x_4`" style="ellipse;whiteSpace=wrap;html=1;aspect=fixed;fontFamily=Times New Roman;fontSize=17;" vertex="1" parent="vPSU2LEX2CRVvElbRj7A-1">
          <mxGeometry x="125" y="424" width="50" height="50" as="geometry" />
        </mxCell>
        <mxCell id="vPSU2LEX2CRVvElbRj7A-27" value="`x_3`" style="ellipse;whiteSpace=wrap;html=1;aspect=fixed;fontFamily=Times New Roman;fontSize=17;" vertex="1" parent="vPSU2LEX2CRVvElbRj7A-1">
          <mxGeometry x="205" y="424" width="50" height="50" as="geometry" />
        </mxCell>
        <mxCell id="vPSU2LEX2CRVvElbRj7A-28" value="`(c)`" style="text;html=1;strokeColor=none;fillColor=none;align=center;verticalAlign=middle;whiteSpace=wrap;rounded=0;fontFamily=Times New Roman;fontSize=17;" vertex="1" parent="vPSU2LEX2CRVvElbRj7A-1">
          <mxGeometry x="160" y="484" width="60" height="30" as="geometry" />
        </mxCell>
        <mxCell id="oe3_FgF-vRw_lqwcAgRQ-0" value="" style="group" vertex="1" connectable="0" parent="vPSU2LEX2CRVvElbRj7A-1">
          <mxGeometry y="20" width="395" height="280" as="geometry" />
        </mxCell>
        <mxCell id="vPSU2LEX2CRVvElbRj7A-48" value="" style="ellipse;whiteSpace=wrap;html=1;aspect=fixed;fontFamily=Times New Roman;fontSize=17;" vertex="1" parent="oe3_FgF-vRw_lqwcAgRQ-0">
          <mxGeometry x="169" y="90" width="50" height="50" as="geometry" />
        </mxCell>
        <mxCell id="vPSU2LEX2CRVvElbRj7A-49" value="`x_4`" style="ellipse;whiteSpace=wrap;html=1;aspect=fixed;fontFamily=Times New Roman;fontSize=17;" vertex="1" parent="oe3_FgF-vRw_lqwcAgRQ-0">
          <mxGeometry x="135" y="170" width="50" height="50" as="geometry" />
        </mxCell>
        <mxCell id="vPSU2LEX2CRVvElbRj7A-46" style="rounded=0;orthogonalLoop=1;jettySize=auto;html=1;exitX=0;exitY=1;exitDx=0;exitDy=0;entryX=0.5;entryY=0;entryDx=0;entryDy=0;fontFamily=Times New Roman;fontSize=17;" edge="1" parent="oe3_FgF-vRw_lqwcAgRQ-0" source="vPSU2LEX2CRVvElbRj7A-48" target="vPSU2LEX2CRVvElbRj7A-49">
          <mxGeometry relative="1" as="geometry" />
        </mxCell>
        <mxCell id="vPSU2LEX2CRVvElbRj7A-50" value="`x_3`" style="ellipse;whiteSpace=wrap;html=1;aspect=fixed;fontFamily=Times New Roman;fontSize=17;" vertex="1" parent="oe3_FgF-vRw_lqwcAgRQ-0">
          <mxGeometry x="205" y="170" width="50" height="50" as="geometry" />
        </mxCell>
        <mxCell id="vPSU2LEX2CRVvElbRj7A-47" style="edgeStyle=none;rounded=0;orthogonalLoop=1;jettySize=auto;html=1;exitX=1;exitY=1;exitDx=0;exitDy=0;entryX=0.5;entryY=0;entryDx=0;entryDy=0;fontFamily=Times New Roman;fontSize=17;" edge="1" parent="oe3_FgF-vRw_lqwcAgRQ-0" source="vPSU2LEX2CRVvElbRj7A-48" target="vPSU2LEX2CRVvElbRj7A-50">
          <mxGeometry relative="1" as="geometry" />
        </mxCell>
        <mxCell id="vPSU2LEX2CRVvElbRj7A-53" value="" style="ellipse;whiteSpace=wrap;html=1;aspect=fixed;fontFamily=Times New Roman;fontSize=17;" vertex="1" parent="oe3_FgF-vRw_lqwcAgRQ-0">
          <mxGeometry x="308" y="90" width="50" height="50" as="geometry" />
        </mxCell>
        <mxCell id="vPSU2LEX2CRVvElbRj7A-54" value="`x_2`" style="ellipse;whiteSpace=wrap;html=1;aspect=fixed;fontFamily=Times New Roman;fontSize=17;" vertex="1" parent="oe3_FgF-vRw_lqwcAgRQ-0">
          <mxGeometry x="275" y="170" width="50" height="50" as="geometry" />
        </mxCell>
        <mxCell id="vPSU2LEX2CRVvElbRj7A-51" style="rounded=0;orthogonalLoop=1;jettySize=auto;html=1;exitX=0;exitY=1;exitDx=0;exitDy=0;entryX=0.5;entryY=0;entryDx=0;entryDy=0;fontFamily=Times New Roman;fontSize=17;" edge="1" parent="oe3_FgF-vRw_lqwcAgRQ-0" source="vPSU2LEX2CRVvElbRj7A-53" target="vPSU2LEX2CRVvElbRj7A-54">
          <mxGeometry relative="1" as="geometry" />
        </mxCell>
        <mxCell id="vPSU2LEX2CRVvElbRj7A-55" value="`x_1`" style="ellipse;whiteSpace=wrap;html=1;aspect=fixed;fontFamily=Times New Roman;fontSize=17;" vertex="1" parent="oe3_FgF-vRw_lqwcAgRQ-0">
          <mxGeometry x="345" y="170" width="50" height="50" as="geometry" />
        </mxCell>
        <mxCell id="vPSU2LEX2CRVvElbRj7A-52" style="edgeStyle=none;rounded=0;orthogonalLoop=1;jettySize=auto;html=1;exitX=1;exitY=1;exitDx=0;exitDy=0;entryX=0.5;entryY=0;entryDx=0;entryDy=0;fontFamily=Times New Roman;fontSize=17;" edge="1" parent="oe3_FgF-vRw_lqwcAgRQ-0" source="vPSU2LEX2CRVvElbRj7A-53" target="vPSU2LEX2CRVvElbRj7A-55">
          <mxGeometry relative="1" as="geometry" />
        </mxCell>
        <mxCell id="vPSU2LEX2CRVvElbRj7A-56" style="edgeStyle=none;rounded=0;orthogonalLoop=1;jettySize=auto;html=1;exitX=0;exitY=1;exitDx=0;exitDy=0;fontFamily=Times New Roman;fontSize=17;" edge="1" parent="oe3_FgF-vRw_lqwcAgRQ-0" source="vPSU2LEX2CRVvElbRj7A-58" target="vPSU2LEX2CRVvElbRj7A-48">
          <mxGeometry relative="1" as="geometry" />
        </mxCell>
        <mxCell id="vPSU2LEX2CRVvElbRj7A-57" style="edgeStyle=none;rounded=0;orthogonalLoop=1;jettySize=auto;html=1;exitX=1;exitY=1;exitDx=0;exitDy=0;entryX=0;entryY=0;entryDx=0;entryDy=0;fontFamily=Times New Roman;fontSize=17;" edge="1" parent="oe3_FgF-vRw_lqwcAgRQ-0" source="vPSU2LEX2CRVvElbRj7A-58" target="vPSU2LEX2CRVvElbRj7A-53">
          <mxGeometry relative="1" as="geometry" />
        </mxCell>
        <mxCell id="vPSU2LEX2CRVvElbRj7A-58" value="`t_2`" style="ellipse;whiteSpace=wrap;html=1;aspect=fixed;fontFamily=Times New Roman;fontSize=17;" vertex="1" parent="oe3_FgF-vRw_lqwcAgRQ-0">
          <mxGeometry x="237" width="50" height="50" as="geometry" />
        </mxCell>
        <mxCell id="vPSU2LEX2CRVvElbRj7A-59" value="`(a)`" style="text;html=1;strokeColor=none;fillColor=none;align=center;verticalAlign=middle;whiteSpace=wrap;rounded=0;fontFamily=Times New Roman;fontSize=17;" vertex="1" parent="oe3_FgF-vRw_lqwcAgRQ-0">
          <mxGeometry x="164" y="250" width="60" height="30" as="geometry" />
        </mxCell>
        <mxCell id="vPSU2LEX2CRVvElbRj7A-62" value="`t_1`" style="ellipse;whiteSpace=wrap;html=1;aspect=fixed;fontFamily=Times New Roman;fontSize=17;" vertex="1" parent="oe3_FgF-vRw_lqwcAgRQ-0">
          <mxGeometry x="36" y="90" width="50" height="50" as="geometry" />
        </mxCell>
        <mxCell id="vPSU2LEX2CRVvElbRj7A-63" value="`x_6`" style="ellipse;whiteSpace=wrap;html=1;aspect=fixed;fontFamily=Times New Roman;fontSize=17;" vertex="1" parent="oe3_FgF-vRw_lqwcAgRQ-0">
          <mxGeometry y="170" width="50" height="50" as="geometry" />
        </mxCell>
        <mxCell id="vPSU2LEX2CRVvElbRj7A-60" style="rounded=0;orthogonalLoop=1;jettySize=auto;html=1;exitX=0;exitY=1;exitDx=0;exitDy=0;entryX=0.5;entryY=0;entryDx=0;entryDy=0;fontFamily=Times New Roman;fontSize=17;" edge="1" parent="oe3_FgF-vRw_lqwcAgRQ-0" source="vPSU2LEX2CRVvElbRj7A-62" target="vPSU2LEX2CRVvElbRj7A-63">
          <mxGeometry relative="1" as="geometry" />
        </mxCell>
        <mxCell id="vPSU2LEX2CRVvElbRj7A-64" value="`x_5`" style="ellipse;whiteSpace=wrap;html=1;aspect=fixed;fontFamily=Times New Roman;fontSize=17;" vertex="1" parent="oe3_FgF-vRw_lqwcAgRQ-0">
          <mxGeometry x="72" y="170" width="50" height="50" as="geometry" />
        </mxCell>
        <mxCell id="vPSU2LEX2CRVvElbRj7A-61" style="edgeStyle=none;rounded=0;orthogonalLoop=1;jettySize=auto;html=1;exitX=1;exitY=1;exitDx=0;exitDy=0;entryX=0.5;entryY=0;entryDx=0;entryDy=0;fontFamily=Times New Roman;fontSize=17;" edge="1" parent="oe3_FgF-vRw_lqwcAgRQ-0" source="vPSU2LEX2CRVvElbRj7A-62" target="vPSU2LEX2CRVvElbRj7A-64">
          <mxGeometry relative="1" as="geometry" />
        </mxCell>
        <mxCell id="oe3_FgF-vRw_lqwcAgRQ-1" value="" style="group" vertex="1" connectable="0" parent="vPSU2LEX2CRVvElbRj7A-1">
          <mxGeometry x="440" y="20" width="260" height="280" as="geometry" />
        </mxCell>
        <mxCell id="vPSU2LEX2CRVvElbRj7A-9" value="" style="ellipse;whiteSpace=wrap;html=1;aspect=fixed;fontFamily=Times New Roman;fontSize=17;" vertex="1" parent="oe3_FgF-vRw_lqwcAgRQ-1">
          <mxGeometry x="34" y="90" width="50" height="50" as="geometry" />
        </mxCell>
        <mxCell id="vPSU2LEX2CRVvElbRj7A-10" value="`x_4`" style="ellipse;whiteSpace=wrap;html=1;aspect=fixed;fontFamily=Times New Roman;fontSize=17;" vertex="1" parent="oe3_FgF-vRw_lqwcAgRQ-1">
          <mxGeometry y="170" width="50" height="50" as="geometry" />
        </mxCell>
        <mxCell id="vPSU2LEX2CRVvElbRj7A-7" style="rounded=0;orthogonalLoop=1;jettySize=auto;html=1;exitX=0;exitY=1;exitDx=0;exitDy=0;entryX=0.5;entryY=0;entryDx=0;entryDy=0;fontFamily=Times New Roman;fontSize=17;" edge="1" parent="oe3_FgF-vRw_lqwcAgRQ-1" source="vPSU2LEX2CRVvElbRj7A-9" target="vPSU2LEX2CRVvElbRj7A-10">
          <mxGeometry relative="1" as="geometry" />
        </mxCell>
        <mxCell id="vPSU2LEX2CRVvElbRj7A-11" value="`x_3`" style="ellipse;whiteSpace=wrap;html=1;aspect=fixed;fontFamily=Times New Roman;fontSize=17;" vertex="1" parent="oe3_FgF-vRw_lqwcAgRQ-1">
          <mxGeometry x="70" y="170" width="50" height="50" as="geometry" />
        </mxCell>
        <mxCell id="vPSU2LEX2CRVvElbRj7A-8" style="edgeStyle=none;rounded=0;orthogonalLoop=1;jettySize=auto;html=1;exitX=1;exitY=1;exitDx=0;exitDy=0;entryX=0.5;entryY=0;entryDx=0;entryDy=0;fontFamily=Times New Roman;fontSize=17;" edge="1" parent="oe3_FgF-vRw_lqwcAgRQ-1" source="vPSU2LEX2CRVvElbRj7A-9" target="vPSU2LEX2CRVvElbRj7A-11">
          <mxGeometry relative="1" as="geometry" />
        </mxCell>
        <mxCell id="vPSU2LEX2CRVvElbRj7A-14" value="" style="ellipse;whiteSpace=wrap;html=1;aspect=fixed;fontFamily=Times New Roman;fontSize=17;" vertex="1" parent="oe3_FgF-vRw_lqwcAgRQ-1">
          <mxGeometry x="173" y="90" width="50" height="50" as="geometry" />
        </mxCell>
        <mxCell id="vPSU2LEX2CRVvElbRj7A-15" value="`x_2`" style="ellipse;whiteSpace=wrap;html=1;aspect=fixed;fontFamily=Times New Roman;fontSize=17;" vertex="1" parent="oe3_FgF-vRw_lqwcAgRQ-1">
          <mxGeometry x="140" y="170" width="50" height="50" as="geometry" />
        </mxCell>
        <mxCell id="vPSU2LEX2CRVvElbRj7A-12" style="rounded=0;orthogonalLoop=1;jettySize=auto;html=1;exitX=0;exitY=1;exitDx=0;exitDy=0;entryX=0.5;entryY=0;entryDx=0;entryDy=0;fontFamily=Times New Roman;fontSize=17;" edge="1" parent="oe3_FgF-vRw_lqwcAgRQ-1" source="vPSU2LEX2CRVvElbRj7A-14" target="vPSU2LEX2CRVvElbRj7A-15">
          <mxGeometry relative="1" as="geometry" />
        </mxCell>
        <mxCell id="vPSU2LEX2CRVvElbRj7A-16" value="`x_1`" style="ellipse;whiteSpace=wrap;html=1;aspect=fixed;fontFamily=Times New Roman;fontSize=17;" vertex="1" parent="oe3_FgF-vRw_lqwcAgRQ-1">
          <mxGeometry x="210" y="170" width="50" height="50" as="geometry" />
        </mxCell>
        <mxCell id="vPSU2LEX2CRVvElbRj7A-13" style="edgeStyle=none;rounded=0;orthogonalLoop=1;jettySize=auto;html=1;exitX=1;exitY=1;exitDx=0;exitDy=0;entryX=0.5;entryY=0;entryDx=0;entryDy=0;fontFamily=Times New Roman;fontSize=17;" edge="1" parent="oe3_FgF-vRw_lqwcAgRQ-1" source="vPSU2LEX2CRVvElbRj7A-14" target="vPSU2LEX2CRVvElbRj7A-16">
          <mxGeometry relative="1" as="geometry" />
        </mxCell>
        <mxCell id="vPSU2LEX2CRVvElbRj7A-17" style="edgeStyle=none;rounded=0;orthogonalLoop=1;jettySize=auto;html=1;exitX=0;exitY=1;exitDx=0;exitDy=0;fontFamily=Times New Roman;fontSize=17;" edge="1" parent="oe3_FgF-vRw_lqwcAgRQ-1" source="vPSU2LEX2CRVvElbRj7A-19" target="vPSU2LEX2CRVvElbRj7A-9">
          <mxGeometry relative="1" as="geometry" />
        </mxCell>
        <mxCell id="vPSU2LEX2CRVvElbRj7A-18" style="edgeStyle=none;rounded=0;orthogonalLoop=1;jettySize=auto;html=1;exitX=1;exitY=1;exitDx=0;exitDy=0;entryX=0;entryY=0;entryDx=0;entryDy=0;fontFamily=Times New Roman;fontSize=17;" edge="1" parent="oe3_FgF-vRw_lqwcAgRQ-1" source="vPSU2LEX2CRVvElbRj7A-19" target="vPSU2LEX2CRVvElbRj7A-14">
          <mxGeometry relative="1" as="geometry" />
        </mxCell>
        <mxCell id="vPSU2LEX2CRVvElbRj7A-19" value="`t_2`" style="ellipse;whiteSpace=wrap;html=1;aspect=fixed;fontFamily=Times New Roman;fontSize=17;" vertex="1" parent="oe3_FgF-vRw_lqwcAgRQ-1">
          <mxGeometry x="102" width="50" height="50" as="geometry" />
        </mxCell>
        <mxCell id="vPSU2LEX2CRVvElbRj7A-30" value="`(b)`" style="text;html=1;strokeColor=none;fillColor=none;align=center;verticalAlign=middle;whiteSpace=wrap;rounded=0;fontFamily=Times New Roman;fontSize=17;" vertex="1" parent="oe3_FgF-vRw_lqwcAgRQ-1">
          <mxGeometry x="100" y="250" width="60" height="30" as="geometry" />
        </mxCell>
        <mxCell id="oe3_FgF-vRw_lqwcAgRQ-2" value="`x_3`" style="ellipse;whiteSpace=wrap;html=1;aspect=fixed;fontFamily=Times New Roman;fontSize=17;" vertex="1" parent="vPSU2LEX2CRVvElbRj7A-1">
          <mxGeometry x="545" y="390" width="50" height="50" as="geometry" />
        </mxCell>
        <mxCell id="oe3_FgF-vRw_lqwcAgRQ-3" value="`(d)`" style="text;html=1;strokeColor=none;fillColor=none;align=center;verticalAlign=middle;whiteSpace=wrap;rounded=0;fontFamily=Times New Roman;fontSize=17;" vertex="1" parent="vPSU2LEX2CRVvElbRj7A-1">
          <mxGeometry x="540" y="484" width="60" height="30" as="geometry" />
        </mxCell>
      </root>
    </mxGraphModel>
  </diagram>
  <diagram id="tfBq0tVWoUPmBabS9Vh8" name="paired array">
    <mxGraphModel dx="1159" dy="784" grid="1" gridSize="10" guides="1" tooltips="1" connect="1" arrows="1" fold="1" page="1" pageScale="1" pageWidth="850" pageHeight="1100" math="0" shadow="0">
      <root>
        <mxCell id="0" />
        <mxCell id="1" parent="0" />
        <mxCell id="3wsfO_mj57V4BgmMsToR-2" value="&lt;font size=&quot;1&quot; face=&quot;Times New Roman&quot;&gt;&lt;span style=&quot;font-size: 17px;&quot;&gt;&lt;i&gt;x&lt;/i&gt;&lt;sub style=&quot;&quot;&gt;1&lt;/sub&gt;&lt;/span&gt;&lt;/font&gt;" style="rounded=0;whiteSpace=wrap;html=1;" parent="1" vertex="1">
          <mxGeometry x="340" y="360" width="50" height="50" as="geometry" />
        </mxCell>
        <mxCell id="3wsfO_mj57V4BgmMsToR-3" value="&lt;font size=&quot;1&quot; face=&quot;Times New Roman&quot;&gt;&lt;span style=&quot;font-size: 17px;&quot;&gt;&lt;i&gt;x&lt;/i&gt;&lt;sub style=&quot;&quot;&gt;2&lt;/sub&gt;&lt;/span&gt;&lt;/font&gt;" style="rounded=0;whiteSpace=wrap;html=1;" parent="1" vertex="1">
          <mxGeometry x="290" y="360" width="50" height="50" as="geometry" />
        </mxCell>
        <mxCell id="3wsfO_mj57V4BgmMsToR-4" value="&lt;font size=&quot;1&quot; face=&quot;Times New Roman&quot;&gt;&lt;span style=&quot;font-size: 17px;&quot;&gt;&lt;i&gt;x&lt;/i&gt;&lt;sub style=&quot;&quot;&gt;&lt;i&gt;n&lt;/i&gt;&lt;/sub&gt;&lt;/span&gt;&lt;/font&gt;" style="rounded=0;whiteSpace=wrap;html=1;" parent="1" vertex="1">
          <mxGeometry x="170" y="360" width="50" height="50" as="geometry" />
        </mxCell>
        <mxCell id="3wsfO_mj57V4BgmMsToR-5" value="&lt;font style=&quot;font-size: 17px;&quot;&gt;front&lt;/font&gt;" style="text;html=1;strokeColor=none;fillColor=none;align=center;verticalAlign=middle;whiteSpace=wrap;rounded=0;fontFamily=Times New Roman;fontSize=17;" parent="1" vertex="1">
          <mxGeometry x="230" y="420" width="60" height="30" as="geometry" />
        </mxCell>
        <mxCell id="3wsfO_mj57V4BgmMsToR-6" value="&lt;font style=&quot;font-size: 17px;&quot;&gt;...&lt;/font&gt;" style="text;html=1;strokeColor=none;fillColor=none;align=center;verticalAlign=middle;whiteSpace=wrap;rounded=0;fontFamily=Times New Roman;fontSize=17;" parent="1" vertex="1">
          <mxGeometry x="230" y="370" width="60" height="30" as="geometry" />
        </mxCell>
        <mxCell id="3wsfO_mj57V4BgmMsToR-7" value="&lt;font size=&quot;1&quot; face=&quot;Times New Roman&quot;&gt;&lt;span style=&quot;font-size: 17px;&quot;&gt;&lt;i&gt;y&lt;/i&gt;&lt;sub style=&quot;&quot;&gt;1&lt;/sub&gt;&lt;/span&gt;&lt;/font&gt;" style="rounded=0;whiteSpace=wrap;html=1;" parent="1" vertex="1">
          <mxGeometry x="480" y="360" width="50" height="50" as="geometry" />
        </mxCell>
        <mxCell id="3wsfO_mj57V4BgmMsToR-8" value="&lt;font size=&quot;1&quot; face=&quot;Times New Roman&quot;&gt;&lt;span style=&quot;font-size: 17px;&quot;&gt;&lt;i&gt;y&lt;/i&gt;&lt;sub style=&quot;&quot;&gt;2&lt;/sub&gt;&lt;/span&gt;&lt;/font&gt;" style="rounded=0;whiteSpace=wrap;html=1;" parent="1" vertex="1">
          <mxGeometry x="530" y="360" width="50" height="50" as="geometry" />
        </mxCell>
        <mxCell id="3wsfO_mj57V4BgmMsToR-9" value="&lt;font size=&quot;1&quot; face=&quot;Times New Roman&quot;&gt;&lt;span style=&quot;font-size: 17px;&quot;&gt;&lt;i&gt;y&lt;/i&gt;&lt;sub style=&quot;&quot;&gt;&lt;i&gt;m&lt;/i&gt;&lt;/sub&gt;&lt;/span&gt;&lt;/font&gt;" style="rounded=0;whiteSpace=wrap;html=1;" parent="1" vertex="1">
          <mxGeometry x="650" y="360" width="50" height="50" as="geometry" />
        </mxCell>
        <mxCell id="3wsfO_mj57V4BgmMsToR-10" value="&lt;font style=&quot;font-size: 17px;&quot;&gt;rear&lt;/font&gt;" style="text;html=1;strokeColor=none;fillColor=none;align=center;verticalAlign=middle;whiteSpace=wrap;rounded=0;fontFamily=Times New Roman;fontSize=17;" parent="1" vertex="1">
          <mxGeometry x="570" y="420" width="60" height="30" as="geometry" />
        </mxCell>
        <mxCell id="3wsfO_mj57V4BgmMsToR-11" value="&lt;font style=&quot;font-size: 17px;&quot;&gt;...&lt;/font&gt;" style="text;html=1;strokeColor=none;fillColor=none;align=center;verticalAlign=middle;whiteSpace=wrap;rounded=0;fontFamily=Times New Roman;fontSize=17;" parent="1" vertex="1">
          <mxGeometry x="580" y="370" width="60" height="30" as="geometry" />
        </mxCell>
        <mxCell id="3wsfO_mj57V4BgmMsToR-12" style="rounded=0;orthogonalLoop=1;jettySize=auto;html=1;exitX=0;exitY=0.5;exitDx=0;exitDy=0;dashed=1;fontFamily=Times New Roman;fontSize=17;startArrow=classic;startFill=1;entryX=1;entryY=0.5;entryDx=0;entryDy=0;" parent="1" source="3wsfO_mj57V4BgmMsToR-7" target="3wsfO_mj57V4BgmMsToR-2" edge="1">
          <mxGeometry relative="1" as="geometry">
            <mxPoint x="110" y="385" as="sourcePoint" />
            <mxPoint x="410" y="380" as="targetPoint" />
          </mxGeometry>
        </mxCell>
        <mxCell id="3wsfO_mj57V4BgmMsToR-13" value="&lt;font style=&quot;font-size: 17px;&quot;&gt;&lt;i&gt;append&lt;/i&gt;&lt;/font&gt;" style="text;html=1;strokeColor=none;fillColor=none;align=center;verticalAlign=middle;whiteSpace=wrap;rounded=0;fontFamily=Times New Roman;fontSize=17;" parent="1" vertex="1">
          <mxGeometry x="720" y="370" width="60" height="30" as="geometry" />
        </mxCell>
        <mxCell id="3wsfO_mj57V4BgmMsToR-15" value="&lt;font style=&quot;font-size: 17px;&quot;&gt;&lt;i&gt;insert&lt;/i&gt;&lt;/font&gt;" style="text;html=1;strokeColor=none;fillColor=none;align=center;verticalAlign=middle;whiteSpace=wrap;rounded=0;fontFamily=Times New Roman;fontSize=17;" parent="1" vertex="1">
          <mxGeometry x="90" y="370" width="80" height="30" as="geometry" />
        </mxCell>
      </root>
    </mxGraphModel>
  </diagram>
  <diagram id="JdrYG1BK3n3VU4sHW269" name="concatenate list">
    <mxGraphModel dx="1159" dy="784" grid="1" gridSize="10" guides="1" tooltips="1" connect="1" arrows="1" fold="1" page="1" pageScale="1" pageWidth="850" pageHeight="1100" math="1" shadow="0">
      <root>
        <mxCell id="0" />
        <mxCell id="1" parent="0" />
        <mxCell id="C2brfUu0RRCaMJZJOc1d-6" style="rounded=0;orthogonalLoop=1;jettySize=auto;html=1;exitX=0;exitY=1;exitDx=0;exitDy=0;entryX=0.5;entryY=0;entryDx=0;entryDy=0;fontFamily=Times New Roman;fontSize=17;" parent="1" source="HHdITmhu7nQhFh4LREWK-1" target="nvnuQxMtekcqHCpSXYlJ-1" edge="1">
          <mxGeometry relative="1" as="geometry" />
        </mxCell>
        <mxCell id="C2brfUu0RRCaMJZJOc1d-8" style="rounded=0;orthogonalLoop=1;jettySize=auto;html=1;exitX=0;exitY=1;exitDx=0;exitDy=0;entryX=0.5;entryY=0;entryDx=0;entryDy=0;fontFamily=Times New Roman;fontSize=17;" parent="1" source="HHdITmhu7nQhFh4LREWK-1" target="nvnuQxMtekcqHCpSXYlJ-2" edge="1">
          <mxGeometry relative="1" as="geometry" />
        </mxCell>
        <mxCell id="C2brfUu0RRCaMJZJOc1d-9" style="edgeStyle=none;rounded=0;orthogonalLoop=1;jettySize=auto;html=1;exitX=1;exitY=1;exitDx=0;exitDy=0;entryX=0.5;entryY=0;entryDx=0;entryDy=0;fontFamily=Times New Roman;fontSize=17;" parent="1" source="HHdITmhu7nQhFh4LREWK-1" target="C2brfUu0RRCaMJZJOc1d-2" edge="1">
          <mxGeometry relative="1" as="geometry" />
        </mxCell>
        <mxCell id="HHdITmhu7nQhFh4LREWK-1" value="&lt;font style=&quot;font-size: 17px;&quot; face=&quot;Times New Roman&quot;&gt;&lt;i&gt;x&lt;/i&gt;&lt;sub&gt;1&lt;/sub&gt;&lt;/font&gt;" style="ellipse;whiteSpace=wrap;html=1;aspect=fixed;" parent="1" vertex="1">
          <mxGeometry x="380" y="100" width="60" height="60" as="geometry" />
        </mxCell>
        <mxCell id="C2brfUu0RRCaMJZJOc1d-10" style="edgeStyle=none;rounded=0;orthogonalLoop=1;jettySize=auto;html=1;exitX=0.5;exitY=1;exitDx=0;exitDy=0;entryX=0.5;entryY=0;entryDx=0;entryDy=0;fontFamily=Times New Roman;fontSize=17;" parent="1" source="nvnuQxMtekcqHCpSXYlJ-1" target="C2brfUu0RRCaMJZJOc1d-3" edge="1">
          <mxGeometry relative="1" as="geometry" />
        </mxCell>
        <mxCell id="nvnuQxMtekcqHCpSXYlJ-1" value="&lt;font size=&quot;1&quot; face=&quot;Times New Roman&quot;&gt;&lt;span style=&quot;font-size: 17px;&quot;&gt;&lt;i&gt;c&lt;/i&gt;&lt;sub style=&quot;&quot;&gt;1&lt;/sub&gt;&lt;/span&gt;&lt;/font&gt;" style="rounded=0;whiteSpace=wrap;html=1;" parent="1" vertex="1">
          <mxGeometry x="280" y="190" width="50" height="50" as="geometry" />
        </mxCell>
        <mxCell id="C2brfUu0RRCaMJZJOc1d-11" style="edgeStyle=none;rounded=0;orthogonalLoop=1;jettySize=auto;html=1;exitX=0.5;exitY=1;exitDx=0;exitDy=0;entryX=0.5;entryY=0;entryDx=0;entryDy=0;fontFamily=Times New Roman;fontSize=17;" parent="1" source="nvnuQxMtekcqHCpSXYlJ-2" target="C2brfUu0RRCaMJZJOc1d-4" edge="1">
          <mxGeometry relative="1" as="geometry" />
        </mxCell>
        <mxCell id="nvnuQxMtekcqHCpSXYlJ-2" value="&lt;font size=&quot;1&quot; face=&quot;Times New Roman&quot;&gt;&lt;span style=&quot;font-size: 17px;&quot;&gt;&lt;i&gt;c&lt;/i&gt;&lt;sub style=&quot;&quot;&gt;2&lt;/sub&gt;&lt;/span&gt;&lt;/font&gt;" style="rounded=0;whiteSpace=wrap;html=1;" parent="1" vertex="1">
          <mxGeometry x="330" y="190" width="50" height="50" as="geometry" />
        </mxCell>
        <mxCell id="C2brfUu0RRCaMJZJOc1d-1" value="&lt;font style=&quot;font-size: 17px;&quot;&gt;...&lt;/font&gt;" style="text;html=1;strokeColor=none;fillColor=none;align=center;verticalAlign=middle;whiteSpace=wrap;rounded=0;fontFamily=Times New Roman;fontSize=17;" parent="1" vertex="1">
          <mxGeometry x="400" y="200" width="60" height="30" as="geometry" />
        </mxCell>
        <mxCell id="C2brfUu0RRCaMJZJOc1d-12" style="edgeStyle=none;rounded=0;orthogonalLoop=1;jettySize=auto;html=1;exitX=0.5;exitY=1;exitDx=0;exitDy=0;entryX=0.5;entryY=0;entryDx=0;entryDy=0;fontFamily=Times New Roman;fontSize=17;" parent="1" source="C2brfUu0RRCaMJZJOc1d-2" target="C2brfUu0RRCaMJZJOc1d-5" edge="1">
          <mxGeometry relative="1" as="geometry" />
        </mxCell>
        <mxCell id="C2brfUu0RRCaMJZJOc1d-2" value="&lt;font size=&quot;1&quot; face=&quot;Times New Roman&quot;&gt;&lt;span style=&quot;font-size: 17px;&quot;&gt;&lt;i&gt;c&lt;/i&gt;&lt;sub style=&quot;&quot;&gt;&lt;i&gt;n&lt;/i&gt;&lt;/sub&gt;&lt;/span&gt;&lt;/font&gt;" style="rounded=0;whiteSpace=wrap;html=1;" parent="1" vertex="1">
          <mxGeometry x="470" y="190" width="50" height="50" as="geometry" />
        </mxCell>
        <mxCell id="C2brfUu0RRCaMJZJOc1d-3" value="&lt;i&gt;x&lt;/i&gt;&lt;sub style=&quot;&quot;&gt;2&lt;/sub&gt;, &lt;i&gt;x&lt;/i&gt;&lt;sub style=&quot;&quot;&gt;3&lt;/sub&gt;, ..., &lt;i&gt;x&lt;/i&gt;&lt;sub style=&quot;&quot;&gt;i&lt;/sub&gt;" style="rounded=0;whiteSpace=wrap;html=1;fontFamily=Times New Roman;fontSize=17;" parent="1" vertex="1">
          <mxGeometry x="130" y="300" width="120" height="50" as="geometry" />
        </mxCell>
        <mxCell id="C2brfUu0RRCaMJZJOc1d-4" value="&lt;i&gt;x&lt;/i&gt;&lt;sub style=&quot;&quot;&gt;&lt;i&gt;i&lt;/i&gt;+1&lt;/sub&gt;, &lt;i&gt;x&lt;/i&gt;&lt;sub style=&quot;&quot;&gt;&lt;i&gt;i&lt;/i&gt;+2&lt;/sub&gt;, ..., &lt;i&gt;x&lt;/i&gt;&lt;sub style=&quot;&quot;&gt;&lt;i&gt;j&lt;/i&gt;&lt;/sub&gt;" style="rounded=0;whiteSpace=wrap;html=1;fontFamily=Times New Roman;fontSize=17;" parent="1" vertex="1">
          <mxGeometry x="290" y="300" width="120" height="50" as="geometry" />
        </mxCell>
        <mxCell id="C2brfUu0RRCaMJZJOc1d-5" value="&lt;i&gt;x&lt;/i&gt;&lt;sub style=&quot;&quot;&gt;&lt;i&gt;k&lt;/i&gt;&lt;/sub&gt;, &lt;i&gt;x&lt;/i&gt;&lt;sub style=&quot;&quot;&gt;&lt;i&gt;k&lt;/i&gt;+1&lt;/sub&gt;, ..., &lt;i&gt;x&lt;/i&gt;&lt;sub style=&quot;&quot;&gt;&lt;i&gt;n&lt;/i&gt;&lt;/sub&gt;" style="rounded=0;whiteSpace=wrap;html=1;fontFamily=Times New Roman;fontSize=17;" parent="1" vertex="1">
          <mxGeometry x="490" y="300" width="120" height="50" as="geometry" />
        </mxCell>
        <mxCell id="656jvNxYcL36FGtazrGP-1" value="`(a)`" style="text;html=1;strokeColor=none;fillColor=none;align=center;verticalAlign=middle;whiteSpace=wrap;rounded=0;fontFamily=Times New Roman;fontSize=17;" vertex="1" parent="1">
          <mxGeometry x="380" y="380" width="60" height="30" as="geometry" />
        </mxCell>
        <mxCell id="656jvNxYcL36FGtazrGP-2" style="rounded=0;orthogonalLoop=1;jettySize=auto;html=1;exitX=0;exitY=1;exitDx=0;exitDy=0;entryX=0.5;entryY=0;entryDx=0;entryDy=0;fontFamily=Times New Roman;fontSize=17;" edge="1" source="656jvNxYcL36FGtazrGP-5" target="656jvNxYcL36FGtazrGP-7" parent="1">
          <mxGeometry relative="1" as="geometry" />
        </mxCell>
        <mxCell id="656jvNxYcL36FGtazrGP-3" style="rounded=0;orthogonalLoop=1;jettySize=auto;html=1;exitX=0;exitY=1;exitDx=0;exitDy=0;entryX=0.5;entryY=0;entryDx=0;entryDy=0;fontFamily=Times New Roman;fontSize=17;" edge="1" source="656jvNxYcL36FGtazrGP-5" target="656jvNxYcL36FGtazrGP-9" parent="1">
          <mxGeometry relative="1" as="geometry" />
        </mxCell>
        <mxCell id="656jvNxYcL36FGtazrGP-4" style="edgeStyle=none;rounded=0;orthogonalLoop=1;jettySize=auto;html=1;exitX=1;exitY=1;exitDx=0;exitDy=0;entryX=0.5;entryY=0;entryDx=0;entryDy=0;fontFamily=Times New Roman;fontSize=17;" edge="1" source="656jvNxYcL36FGtazrGP-5" target="656jvNxYcL36FGtazrGP-12" parent="1">
          <mxGeometry relative="1" as="geometry" />
        </mxCell>
        <mxCell id="656jvNxYcL36FGtazrGP-5" value="&lt;font style=&quot;font-size: 17px;&quot; face=&quot;Times New Roman&quot;&gt;&lt;i&gt;x&lt;/i&gt;&lt;sub&gt;1&lt;/sub&gt;&lt;/font&gt;" style="ellipse;whiteSpace=wrap;html=1;aspect=fixed;" vertex="1" parent="1">
          <mxGeometry x="380" y="440" width="60" height="60" as="geometry" />
        </mxCell>
        <mxCell id="656jvNxYcL36FGtazrGP-6" style="edgeStyle=none;rounded=0;orthogonalLoop=1;jettySize=auto;html=1;exitX=0.5;exitY=1;exitDx=0;exitDy=0;entryX=0.5;entryY=0;entryDx=0;entryDy=0;fontFamily=Times New Roman;fontSize=17;" edge="1" source="656jvNxYcL36FGtazrGP-7" target="656jvNxYcL36FGtazrGP-13" parent="1">
          <mxGeometry relative="1" as="geometry" />
        </mxCell>
        <mxCell id="656jvNxYcL36FGtazrGP-7" value="&lt;font size=&quot;1&quot; face=&quot;Times New Roman&quot;&gt;&lt;span style=&quot;font-size: 17px;&quot;&gt;&lt;i&gt;c&lt;/i&gt;&lt;sub style=&quot;&quot;&gt;1&lt;/sub&gt;&lt;/span&gt;&lt;/font&gt;" style="rounded=0;whiteSpace=wrap;html=1;" vertex="1" parent="1">
          <mxGeometry x="280" y="530" width="50" height="50" as="geometry" />
        </mxCell>
        <mxCell id="656jvNxYcL36FGtazrGP-8" style="edgeStyle=none;rounded=0;orthogonalLoop=1;jettySize=auto;html=1;exitX=0.5;exitY=1;exitDx=0;exitDy=0;entryX=0.5;entryY=0;entryDx=0;entryDy=0;fontFamily=Times New Roman;fontSize=17;" edge="1" source="656jvNxYcL36FGtazrGP-9" target="656jvNxYcL36FGtazrGP-14" parent="1">
          <mxGeometry relative="1" as="geometry" />
        </mxCell>
        <mxCell id="656jvNxYcL36FGtazrGP-9" value="&lt;font size=&quot;1&quot; face=&quot;Times New Roman&quot;&gt;&lt;span style=&quot;font-size: 17px;&quot;&gt;&lt;i&gt;c&lt;/i&gt;&lt;sub style=&quot;&quot;&gt;2&lt;/sub&gt;&lt;/span&gt;&lt;/font&gt;" style="rounded=0;whiteSpace=wrap;html=1;" vertex="1" parent="1">
          <mxGeometry x="330" y="530" width="50" height="50" as="geometry" />
        </mxCell>
        <mxCell id="656jvNxYcL36FGtazrGP-10" value="&lt;font style=&quot;font-size: 17px;&quot;&gt;...&lt;/font&gt;" style="text;html=1;strokeColor=none;fillColor=none;align=center;verticalAlign=middle;whiteSpace=wrap;rounded=0;fontFamily=Times New Roman;fontSize=17;" vertex="1" parent="1">
          <mxGeometry x="400" y="540" width="60" height="30" as="geometry" />
        </mxCell>
        <mxCell id="656jvNxYcL36FGtazrGP-11" style="edgeStyle=none;rounded=0;orthogonalLoop=1;jettySize=auto;html=1;exitX=0.5;exitY=1;exitDx=0;exitDy=0;entryX=0.5;entryY=0;entryDx=0;entryDy=0;fontFamily=Times New Roman;fontSize=17;" edge="1" source="656jvNxYcL36FGtazrGP-12" target="656jvNxYcL36FGtazrGP-15" parent="1">
          <mxGeometry relative="1" as="geometry" />
        </mxCell>
        <mxCell id="656jvNxYcL36FGtazrGP-12" value="&lt;font size=&quot;1&quot; face=&quot;Times New Roman&quot;&gt;&lt;span style=&quot;font-size: 17px;&quot;&gt;&lt;i&gt;c&lt;/i&gt;&lt;sub style=&quot;&quot;&gt;&lt;i&gt;n&lt;/i&gt;&lt;/sub&gt;&lt;/span&gt;&lt;/font&gt;" style="rounded=0;whiteSpace=wrap;html=1;" vertex="1" parent="1">
          <mxGeometry x="470" y="530" width="50" height="50" as="geometry" />
        </mxCell>
        <mxCell id="656jvNxYcL36FGtazrGP-13" value="&lt;i&gt;x&lt;/i&gt;&lt;sub style=&quot;&quot;&gt;2&lt;/sub&gt;, &lt;i&gt;x&lt;/i&gt;&lt;sub style=&quot;&quot;&gt;3&lt;/sub&gt;, ..., &lt;i&gt;x&lt;/i&gt;&lt;sub style=&quot;&quot;&gt;i&lt;/sub&gt;" style="rounded=0;whiteSpace=wrap;html=1;fontFamily=Times New Roman;fontSize=17;" vertex="1" parent="1">
          <mxGeometry x="130" y="640" width="120" height="50" as="geometry" />
        </mxCell>
        <mxCell id="656jvNxYcL36FGtazrGP-14" value="&lt;i&gt;x&lt;/i&gt;&lt;sub style=&quot;&quot;&gt;&lt;i&gt;i&lt;/i&gt;+1&lt;/sub&gt;, &lt;i&gt;x&lt;/i&gt;&lt;sub style=&quot;&quot;&gt;&lt;i&gt;i&lt;/i&gt;+2&lt;/sub&gt;, ..., &lt;i&gt;x&lt;/i&gt;&lt;sub style=&quot;&quot;&gt;&lt;i&gt;j&lt;/i&gt;&lt;/sub&gt;" style="rounded=0;whiteSpace=wrap;html=1;fontFamily=Times New Roman;fontSize=17;" vertex="1" parent="1">
          <mxGeometry x="290" y="640" width="120" height="50" as="geometry" />
        </mxCell>
        <mxCell id="656jvNxYcL36FGtazrGP-15" value="&lt;i&gt;x&lt;/i&gt;&lt;sub style=&quot;&quot;&gt;&lt;i&gt;k&lt;/i&gt;&lt;/sub&gt;, &lt;i&gt;x&lt;/i&gt;&lt;sub style=&quot;&quot;&gt;&lt;i&gt;k&lt;/i&gt;+1&lt;/sub&gt;, ..., &lt;i&gt;x&lt;/i&gt;&lt;sub style=&quot;&quot;&gt;&lt;i&gt;n&lt;/i&gt;&lt;/sub&gt;" style="rounded=0;whiteSpace=wrap;html=1;fontFamily=Times New Roman;fontSize=17;" vertex="1" parent="1">
          <mxGeometry x="490" y="640" width="120" height="50" as="geometry" />
        </mxCell>
        <mxCell id="656jvNxYcL36FGtazrGP-16" value="`(b)`" style="text;html=1;strokeColor=none;fillColor=none;align=center;verticalAlign=middle;whiteSpace=wrap;rounded=0;fontFamily=Times New Roman;fontSize=17;" vertex="1" parent="1">
          <mxGeometry x="380" y="720" width="60" height="30" as="geometry" />
        </mxCell>
        <mxCell id="656jvNxYcL36FGtazrGP-19" style="edgeStyle=none;rounded=0;orthogonalLoop=1;jettySize=auto;html=1;exitX=0.5;exitY=1;exitDx=0;exitDy=0;entryX=0.5;entryY=0;entryDx=0;entryDy=0;fontFamily=Times New Roman;fontSize=17;" edge="1" parent="1" source="656jvNxYcL36FGtazrGP-17" target="656jvNxYcL36FGtazrGP-18">
          <mxGeometry relative="1" as="geometry" />
        </mxCell>
        <mxCell id="656jvNxYcL36FGtazrGP-17" value="&lt;font face=&quot;Times New Roman&quot;&gt;&lt;span style=&quot;font-size: 17px;&quot;&gt;`c_{n+1}`&lt;/span&gt;&lt;/font&gt;" style="rounded=0;whiteSpace=wrap;html=1;" vertex="1" parent="1">
          <mxGeometry x="520" y="530" width="50" height="50" as="geometry" />
        </mxCell>
        <mxCell id="656jvNxYcL36FGtazrGP-18" value="`y_1, y_2, ..., y_m`" style="rounded=0;whiteSpace=wrap;html=1;fontFamily=Times New Roman;fontSize=17;" vertex="1" parent="1">
          <mxGeometry x="640" y="640" width="120" height="50" as="geometry" />
        </mxCell>
      </root>
    </mxGraphModel>
  </diagram>
  <diagram id="bN8rlRij4oTFHjl_PDxZ" name="ftr insert">
    <mxGraphModel dx="1114" dy="776" grid="1" gridSize="10" guides="1" tooltips="1" connect="1" arrows="1" fold="1" page="1" pageScale="1" pageWidth="850" pageHeight="1100" math="1" shadow="0">
      <root>
        <mxCell id="0" />
        <mxCell id="1" parent="0" />
        <mxCell id="2U8IWAHzKu0frBjcWuMS-1" value="NIL" style="text;html=1;strokeColor=none;fillColor=none;align=center;verticalAlign=middle;whiteSpace=wrap;rounded=0;fontFamily=Times New Roman;fontSize=17;" parent="1" vertex="1">
          <mxGeometry x="20" y="150" width="60" height="30" as="geometry" />
        </mxCell>
        <mxCell id="2U8IWAHzKu0frBjcWuMS-2" value="$$(1)\ \varnothing$$" style="text;html=1;strokeColor=none;fillColor=none;align=center;verticalAlign=middle;whiteSpace=wrap;rounded=0;fontFamily=Times New Roman;fontSize=17;" parent="1" vertex="1">
          <mxGeometry x="10" y="220" width="80" height="30" as="geometry" />
        </mxCell>
        <mxCell id="2U8IWAHzKu0frBjcWuMS-3" value="&lt;font face=&quot;Verdana&quot;&gt;a&lt;/font&gt;" style="ellipse;whiteSpace=wrap;html=1;aspect=fixed;fontFamily=Times New Roman;fontSize=17;" parent="1" vertex="1">
          <mxGeometry x="110" y="130" width="50" height="50" as="geometry" />
        </mxCell>
        <mxCell id="2U8IWAHzKu0frBjcWuMS-4" value="`(2)\ (a)`" style="text;html=1;strokeColor=none;fillColor=none;align=center;verticalAlign=middle;whiteSpace=wrap;rounded=0;fontFamily=Times New Roman;fontSize=17;" parent="1" vertex="1">
          <mxGeometry x="100" y="220" width="60" height="30" as="geometry" />
        </mxCell>
        <mxCell id="2U8IWAHzKu0frBjcWuMS-10" style="edgeStyle=none;rounded=0;orthogonalLoop=1;jettySize=auto;html=1;exitX=0;exitY=1;exitDx=0;exitDy=0;entryX=0.5;entryY=0;entryDx=0;entryDy=0;fontFamily=Verdana;fontSize=17;" parent="1" source="2U8IWAHzKu0frBjcWuMS-5" target="2U8IWAHzKu0frBjcWuMS-7" edge="1">
          <mxGeometry relative="1" as="geometry" />
        </mxCell>
        <mxCell id="2U8IWAHzKu0frBjcWuMS-11" style="edgeStyle=none;rounded=0;orthogonalLoop=1;jettySize=auto;html=1;exitX=0.5;exitY=1;exitDx=0;exitDy=0;entryX=0.5;entryY=0;entryDx=0;entryDy=0;fontFamily=Verdana;fontSize=17;" parent="1" source="2U8IWAHzKu0frBjcWuMS-5" target="2U8IWAHzKu0frBjcWuMS-9" edge="1">
          <mxGeometry relative="1" as="geometry" />
        </mxCell>
        <mxCell id="2U8IWAHzKu0frBjcWuMS-12" style="edgeStyle=none;rounded=0;orthogonalLoop=1;jettySize=auto;html=1;exitX=1;exitY=1;exitDx=0;exitDy=0;entryX=0.5;entryY=0;entryDx=0;entryDy=0;fontFamily=Verdana;fontSize=17;" parent="1" source="2U8IWAHzKu0frBjcWuMS-5" target="2U8IWAHzKu0frBjcWuMS-8" edge="1">
          <mxGeometry relative="1" as="geometry" />
        </mxCell>
        <mxCell id="2U8IWAHzKu0frBjcWuMS-5" value="" style="ellipse;whiteSpace=wrap;html=1;aspect=fixed;fontFamily=Times New Roman;fontSize=17;" parent="1" vertex="1">
          <mxGeometry x="265" y="50" width="50" height="50" as="geometry" />
        </mxCell>
        <mxCell id="2U8IWAHzKu0frBjcWuMS-6" value="$$(3)\ ([b], \varnothing, [a])$$" style="text;html=1;strokeColor=none;fillColor=none;align=center;verticalAlign=middle;whiteSpace=wrap;rounded=0;fontFamily=Times New Roman;fontSize=17;" parent="1" vertex="1">
          <mxGeometry x="220" y="220" width="140" height="30" as="geometry" />
        </mxCell>
        <mxCell id="2U8IWAHzKu0frBjcWuMS-7" value="b" style="whiteSpace=wrap;html=1;aspect=fixed;fontFamily=Verdana;fontSize=17;" parent="1" vertex="1">
          <mxGeometry x="210" y="135" width="40" height="40" as="geometry" />
        </mxCell>
        <mxCell id="2U8IWAHzKu0frBjcWuMS-8" value="a" style="whiteSpace=wrap;html=1;aspect=fixed;fontFamily=Verdana;fontSize=17;" parent="1" vertex="1">
          <mxGeometry x="330" y="135" width="40" height="40" as="geometry" />
        </mxCell>
        <mxCell id="2U8IWAHzKu0frBjcWuMS-9" value="NIL" style="text;html=1;strokeColor=none;fillColor=none;align=center;verticalAlign=middle;whiteSpace=wrap;rounded=0;fontFamily=Times New Roman;fontSize=17;" parent="1" vertex="1">
          <mxGeometry x="267.5" y="140" width="45" height="30" as="geometry" />
        </mxCell>
        <mxCell id="2U8IWAHzKu0frBjcWuMS-13" style="edgeStyle=none;rounded=0;orthogonalLoop=1;jettySize=auto;html=1;exitX=0;exitY=1;exitDx=0;exitDy=0;entryX=0.5;entryY=0;entryDx=0;entryDy=0;fontFamily=Verdana;fontSize=17;" parent="1" source="2U8IWAHzKu0frBjcWuMS-16" target="2U8IWAHzKu0frBjcWuMS-21" edge="1">
          <mxGeometry relative="1" as="geometry" />
        </mxCell>
        <mxCell id="2U8IWAHzKu0frBjcWuMS-14" style="edgeStyle=none;rounded=0;orthogonalLoop=1;jettySize=auto;html=1;exitX=0.5;exitY=1;exitDx=0;exitDy=0;entryX=0.5;entryY=0;entryDx=0;entryDy=0;fontFamily=Verdana;fontSize=17;" parent="1" source="2U8IWAHzKu0frBjcWuMS-16" target="2U8IWAHzKu0frBjcWuMS-20" edge="1">
          <mxGeometry relative="1" as="geometry" />
        </mxCell>
        <mxCell id="2U8IWAHzKu0frBjcWuMS-15" style="edgeStyle=none;rounded=0;orthogonalLoop=1;jettySize=auto;html=1;exitX=1;exitY=1;exitDx=0;exitDy=0;entryX=0.5;entryY=0;entryDx=0;entryDy=0;fontFamily=Verdana;fontSize=17;" parent="1" source="2U8IWAHzKu0frBjcWuMS-16" target="2U8IWAHzKu0frBjcWuMS-19" edge="1">
          <mxGeometry relative="1" as="geometry" />
        </mxCell>
        <mxCell id="2U8IWAHzKu0frBjcWuMS-16" value="" style="ellipse;whiteSpace=wrap;html=1;aspect=fixed;fontFamily=Times New Roman;fontSize=17;" parent="1" vertex="1">
          <mxGeometry x="585" y="50" width="50" height="50" as="geometry" />
        </mxCell>
        <mxCell id="2U8IWAHzKu0frBjcWuMS-17" value="$$(4)\ ([d, c, b], \varnothing, [a])$$" style="text;html=1;strokeColor=none;fillColor=none;align=center;verticalAlign=middle;whiteSpace=wrap;rounded=0;fontFamily=Times New Roman;fontSize=17;" parent="1" vertex="1">
          <mxGeometry x="450" y="220" width="200" height="30" as="geometry" />
        </mxCell>
        <mxCell id="2U8IWAHzKu0frBjcWuMS-18" value="b" style="whiteSpace=wrap;html=1;aspect=fixed;fontFamily=Verdana;fontSize=17;" parent="1" vertex="1">
          <mxGeometry x="530" y="135" width="40" height="40" as="geometry" />
        </mxCell>
        <mxCell id="2U8IWAHzKu0frBjcWuMS-19" value="a" style="whiteSpace=wrap;html=1;aspect=fixed;fontFamily=Verdana;fontSize=17;" parent="1" vertex="1">
          <mxGeometry x="650" y="135" width="40" height="40" as="geometry" />
        </mxCell>
        <mxCell id="2U8IWAHzKu0frBjcWuMS-20" value="NIL" style="text;html=1;strokeColor=none;fillColor=none;align=center;verticalAlign=middle;whiteSpace=wrap;rounded=0;fontFamily=Times New Roman;fontSize=17;" parent="1" vertex="1">
          <mxGeometry x="587.5" y="140" width="45" height="30" as="geometry" />
        </mxCell>
        <mxCell id="2U8IWAHzKu0frBjcWuMS-21" value="c" style="whiteSpace=wrap;html=1;aspect=fixed;fontFamily=Verdana;fontSize=17;" parent="1" vertex="1">
          <mxGeometry x="490" y="135" width="40" height="40" as="geometry" />
        </mxCell>
        <mxCell id="2U8IWAHzKu0frBjcWuMS-23" value="d" style="whiteSpace=wrap;html=1;aspect=fixed;fontFamily=Verdana;fontSize=17;" parent="1" vertex="1">
          <mxGeometry x="450" y="135" width="40" height="40" as="geometry" />
        </mxCell>
        <mxCell id="2U8IWAHzKu0frBjcWuMS-25" style="edgeStyle=none;rounded=0;orthogonalLoop=1;jettySize=auto;html=1;exitX=0;exitY=1;exitDx=0;exitDy=0;entryX=1;entryY=0;entryDx=0;entryDy=0;fontFamily=Verdana;fontSize=17;" parent="1" source="2U8IWAHzKu0frBjcWuMS-28" target="2U8IWAHzKu0frBjcWuMS-33" edge="1">
          <mxGeometry relative="1" as="geometry" />
        </mxCell>
        <mxCell id="2U8IWAHzKu0frBjcWuMS-26" style="edgeStyle=none;rounded=0;orthogonalLoop=1;jettySize=auto;html=1;exitX=0.5;exitY=1;exitDx=0;exitDy=0;entryX=0.5;entryY=0;entryDx=0;entryDy=0;fontFamily=Verdana;fontSize=17;" parent="1" source="2U8IWAHzKu0frBjcWuMS-28" target="2U8IWAHzKu0frBjcWuMS-36" edge="1">
          <mxGeometry relative="1" as="geometry">
            <mxPoint x="365" y="370" as="targetPoint" />
          </mxGeometry>
        </mxCell>
        <mxCell id="2U8IWAHzKu0frBjcWuMS-27" style="edgeStyle=none;rounded=0;orthogonalLoop=1;jettySize=auto;html=1;exitX=1;exitY=1;exitDx=0;exitDy=0;entryX=0.5;entryY=0;entryDx=0;entryDy=0;fontFamily=Verdana;fontSize=17;" parent="1" source="2U8IWAHzKu0frBjcWuMS-28" target="2U8IWAHzKu0frBjcWuMS-31" edge="1">
          <mxGeometry relative="1" as="geometry" />
        </mxCell>
        <mxCell id="2U8IWAHzKu0frBjcWuMS-28" value="" style="ellipse;whiteSpace=wrap;html=1;aspect=fixed;fontFamily=Times New Roman;fontSize=17;" parent="1" vertex="1">
          <mxGeometry x="340" y="280" width="50" height="50" as="geometry" />
        </mxCell>
        <mxCell id="2U8IWAHzKu0frBjcWuMS-29" value="$$(5)\ ([e, f], (d, c, b), [a])$$" style="text;html=1;strokeColor=none;fillColor=none;align=center;verticalAlign=middle;whiteSpace=wrap;rounded=0;fontFamily=Times New Roman;fontSize=17;" parent="1" vertex="1">
          <mxGeometry x="255" y="520" width="200" height="30" as="geometry" />
        </mxCell>
        <mxCell id="2U8IWAHzKu0frBjcWuMS-30" value="f" style="whiteSpace=wrap;html=1;aspect=fixed;fontFamily=Verdana;fontSize=17;" parent="1" vertex="1">
          <mxGeometry x="285" y="365" width="40" height="40" as="geometry" />
        </mxCell>
        <mxCell id="2U8IWAHzKu0frBjcWuMS-31" value="a" style="whiteSpace=wrap;html=1;aspect=fixed;fontFamily=Verdana;fontSize=17;" parent="1" vertex="1">
          <mxGeometry x="405" y="365" width="40" height="40" as="geometry" />
        </mxCell>
        <mxCell id="2U8IWAHzKu0frBjcWuMS-33" value="e" style="whiteSpace=wrap;html=1;aspect=fixed;fontFamily=Verdana;fontSize=17;" parent="1" vertex="1">
          <mxGeometry x="245" y="365" width="40" height="40" as="geometry" />
        </mxCell>
        <mxCell id="2U8IWAHzKu0frBjcWuMS-40" style="edgeStyle=none;rounded=0;orthogonalLoop=1;jettySize=auto;html=1;exitX=0;exitY=1;exitDx=0;exitDy=0;fontFamily=Verdana;fontSize=17;" parent="1" source="2U8IWAHzKu0frBjcWuMS-36" target="2U8IWAHzKu0frBjcWuMS-38" edge="1">
          <mxGeometry relative="1" as="geometry" />
        </mxCell>
        <mxCell id="2U8IWAHzKu0frBjcWuMS-41" style="edgeStyle=none;rounded=0;orthogonalLoop=1;jettySize=auto;html=1;exitX=0.5;exitY=1;exitDx=0;exitDy=0;fontFamily=Verdana;fontSize=17;" parent="1" source="2U8IWAHzKu0frBjcWuMS-36" target="2U8IWAHzKu0frBjcWuMS-37" edge="1">
          <mxGeometry relative="1" as="geometry" />
        </mxCell>
        <mxCell id="2U8IWAHzKu0frBjcWuMS-42" style="edgeStyle=none;rounded=0;orthogonalLoop=1;jettySize=auto;html=1;exitX=1;exitY=1;exitDx=0;exitDy=0;fontFamily=Verdana;fontSize=17;" parent="1" source="2U8IWAHzKu0frBjcWuMS-36" target="2U8IWAHzKu0frBjcWuMS-39" edge="1">
          <mxGeometry relative="1" as="geometry" />
        </mxCell>
        <mxCell id="2U8IWAHzKu0frBjcWuMS-36" value="" style="ellipse;whiteSpace=wrap;html=1;aspect=fixed;fontFamily=Times New Roman;fontSize=17;" parent="1" vertex="1">
          <mxGeometry x="340" y="365" width="50" height="50" as="geometry" />
        </mxCell>
        <mxCell id="2U8IWAHzKu0frBjcWuMS-37" value="c" style="ellipse;whiteSpace=wrap;html=1;aspect=fixed;fontFamily=Verdana;fontSize=17;" parent="1" vertex="1">
          <mxGeometry x="340" y="440" width="50" height="50" as="geometry" />
        </mxCell>
        <mxCell id="2U8IWAHzKu0frBjcWuMS-38" value="d" style="ellipse;whiteSpace=wrap;html=1;aspect=fixed;fontFamily=Verdana;fontSize=17;" parent="1" vertex="1">
          <mxGeometry x="275" y="440" width="50" height="50" as="geometry" />
        </mxCell>
        <mxCell id="2U8IWAHzKu0frBjcWuMS-39" value="b" style="ellipse;whiteSpace=wrap;html=1;aspect=fixed;fontFamily=Verdana;fontSize=17;" parent="1" vertex="1">
          <mxGeometry x="405" y="440" width="50" height="50" as="geometry" />
        </mxCell>
      </root>
    </mxGraphModel>
  </diagram>
  <diagram name="ftr uncons" id="Byjg8YJpfvoENgKyXjnO">
    <mxGraphModel dx="1159" dy="784" grid="1" gridSize="10" guides="1" tooltips="1" connect="1" arrows="1" fold="1" page="1" pageScale="1" pageWidth="850" pageHeight="1100" math="1" shadow="0">
      <root>
        <mxCell id="VUR_6pwl2YzXU2F9GqZp-0" />
        <mxCell id="VUR_6pwl2YzXU2F9GqZp-1" parent="VUR_6pwl2YzXU2F9GqZp-0" />
        <mxCell id="VUR_6pwl2YzXU2F9GqZp-25" style="edgeStyle=none;rounded=0;orthogonalLoop=1;jettySize=auto;html=1;exitX=0;exitY=1;exitDx=0;exitDy=0;entryX=0.5;entryY=0;entryDx=0;entryDy=0;fontFamily=Verdana;fontSize=17;" edge="1" parent="VUR_6pwl2YzXU2F9GqZp-1" source="VUR_6pwl2YzXU2F9GqZp-28" target="VUR_6pwl2YzXU2F9GqZp-32">
          <mxGeometry relative="1" as="geometry" />
        </mxCell>
        <mxCell id="VUR_6pwl2YzXU2F9GqZp-26" style="edgeStyle=none;rounded=0;orthogonalLoop=1;jettySize=auto;html=1;exitX=0.5;exitY=1;exitDx=0;exitDy=0;entryX=0.5;entryY=0;entryDx=0;entryDy=0;fontFamily=Verdana;fontSize=17;" edge="1" parent="VUR_6pwl2YzXU2F9GqZp-1" source="VUR_6pwl2YzXU2F9GqZp-28" target="VUR_6pwl2YzXU2F9GqZp-36">
          <mxGeometry relative="1" as="geometry">
            <mxPoint x="415" y="570" as="targetPoint" />
          </mxGeometry>
        </mxCell>
        <mxCell id="VUR_6pwl2YzXU2F9GqZp-27" style="edgeStyle=none;rounded=0;orthogonalLoop=1;jettySize=auto;html=1;exitX=1;exitY=1;exitDx=0;exitDy=0;entryX=1;entryY=0;entryDx=0;entryDy=0;fontFamily=Verdana;fontSize=17;" edge="1" parent="VUR_6pwl2YzXU2F9GqZp-1" source="VUR_6pwl2YzXU2F9GqZp-28" target="VUR_6pwl2YzXU2F9GqZp-31">
          <mxGeometry relative="1" as="geometry" />
        </mxCell>
        <mxCell id="VUR_6pwl2YzXU2F9GqZp-28" value="" style="ellipse;whiteSpace=wrap;html=1;aspect=fixed;fontFamily=Times New Roman;fontSize=17;" vertex="1" parent="VUR_6pwl2YzXU2F9GqZp-1">
          <mxGeometry x="390" y="480" width="50" height="50" as="geometry" />
        </mxCell>
        <mxCell id="VUR_6pwl2YzXU2F9GqZp-29" value="`(c)`" style="text;html=1;strokeColor=none;fillColor=none;align=center;verticalAlign=middle;whiteSpace=wrap;rounded=0;fontFamily=Times New Roman;fontSize=17;" vertex="1" parent="VUR_6pwl2YzXU2F9GqZp-1">
          <mxGeometry x="305" y="720" width="200" height="30" as="geometry" />
        </mxCell>
        <mxCell id="VUR_6pwl2YzXU2F9GqZp-30" value="`x_6`" style="whiteSpace=wrap;html=1;aspect=fixed;fontFamily=Verdana;fontSize=17;" vertex="1" parent="VUR_6pwl2YzXU2F9GqZp-1">
          <mxGeometry x="335" y="565" width="40" height="40" as="geometry" />
        </mxCell>
        <mxCell id="VUR_6pwl2YzXU2F9GqZp-31" value="`x_2`" style="whiteSpace=wrap;html=1;aspect=fixed;fontFamily=Verdana;fontSize=17;" vertex="1" parent="VUR_6pwl2YzXU2F9GqZp-1">
          <mxGeometry x="455" y="565" width="40" height="40" as="geometry" />
        </mxCell>
        <mxCell id="VUR_6pwl2YzXU2F9GqZp-32" value="`x_7`" style="whiteSpace=wrap;html=1;aspect=fixed;fontFamily=Verdana;fontSize=17;" vertex="1" parent="VUR_6pwl2YzXU2F9GqZp-1">
          <mxGeometry x="295" y="565" width="40" height="40" as="geometry" />
        </mxCell>
        <mxCell id="VUR_6pwl2YzXU2F9GqZp-33" style="edgeStyle=none;rounded=0;orthogonalLoop=1;jettySize=auto;html=1;exitX=0;exitY=1;exitDx=0;exitDy=0;fontFamily=Verdana;fontSize=17;" edge="1" parent="VUR_6pwl2YzXU2F9GqZp-1" source="VUR_6pwl2YzXU2F9GqZp-36" target="VUR_6pwl2YzXU2F9GqZp-38">
          <mxGeometry relative="1" as="geometry" />
        </mxCell>
        <mxCell id="VUR_6pwl2YzXU2F9GqZp-34" style="edgeStyle=none;rounded=0;orthogonalLoop=1;jettySize=auto;html=1;exitX=0.5;exitY=1;exitDx=0;exitDy=0;fontFamily=Verdana;fontSize=17;" edge="1" parent="VUR_6pwl2YzXU2F9GqZp-1" source="VUR_6pwl2YzXU2F9GqZp-36" target="VUR_6pwl2YzXU2F9GqZp-37">
          <mxGeometry relative="1" as="geometry" />
        </mxCell>
        <mxCell id="VUR_6pwl2YzXU2F9GqZp-35" style="edgeStyle=none;rounded=0;orthogonalLoop=1;jettySize=auto;html=1;exitX=1;exitY=1;exitDx=0;exitDy=0;fontFamily=Verdana;fontSize=17;" edge="1" parent="VUR_6pwl2YzXU2F9GqZp-1" source="VUR_6pwl2YzXU2F9GqZp-36" target="VUR_6pwl2YzXU2F9GqZp-39">
          <mxGeometry relative="1" as="geometry" />
        </mxCell>
        <mxCell id="VUR_6pwl2YzXU2F9GqZp-36" value="" style="ellipse;whiteSpace=wrap;html=1;aspect=fixed;fontFamily=Times New Roman;fontSize=17;" vertex="1" parent="VUR_6pwl2YzXU2F9GqZp-1">
          <mxGeometry x="390" y="565" width="50" height="50" as="geometry" />
        </mxCell>
        <mxCell id="VUR_6pwl2YzXU2F9GqZp-37" value="`x_4`" style="ellipse;whiteSpace=wrap;html=1;aspect=fixed;fontFamily=Verdana;fontSize=17;" vertex="1" parent="VUR_6pwl2YzXU2F9GqZp-1">
          <mxGeometry x="390" y="640" width="50" height="50" as="geometry" />
        </mxCell>
        <mxCell id="VUR_6pwl2YzXU2F9GqZp-38" value="`x_5`" style="ellipse;whiteSpace=wrap;html=1;aspect=fixed;fontFamily=Verdana;fontSize=17;" vertex="1" parent="VUR_6pwl2YzXU2F9GqZp-1">
          <mxGeometry x="325" y="640" width="50" height="50" as="geometry" />
        </mxCell>
        <mxCell id="VUR_6pwl2YzXU2F9GqZp-39" value="`x_3`" style="ellipse;whiteSpace=wrap;html=1;aspect=fixed;fontFamily=Verdana;fontSize=17;" vertex="1" parent="VUR_6pwl2YzXU2F9GqZp-1">
          <mxGeometry x="455" y="640" width="50" height="50" as="geometry" />
        </mxCell>
        <mxCell id="J12rvj43BmPWwBxgD0U2-0" value="`x_1`" style="whiteSpace=wrap;html=1;aspect=fixed;fontFamily=Verdana;fontSize=17;" vertex="1" parent="VUR_6pwl2YzXU2F9GqZp-1">
          <mxGeometry x="495" y="565" width="40" height="40" as="geometry" />
        </mxCell>
        <mxCell id="J12rvj43BmPWwBxgD0U2-1" value="`x_8`" style="whiteSpace=wrap;html=1;aspect=fixed;fontFamily=Verdana;fontSize=17;" vertex="1" parent="VUR_6pwl2YzXU2F9GqZp-1">
          <mxGeometry x="255" y="565" width="40" height="40" as="geometry" />
        </mxCell>
        <mxCell id="J12rvj43BmPWwBxgD0U2-2" style="edgeStyle=none;rounded=0;orthogonalLoop=1;jettySize=auto;html=1;exitX=0;exitY=1;exitDx=0;exitDy=0;entryX=0.5;entryY=0;entryDx=0;entryDy=0;fontFamily=Verdana;fontSize=17;" edge="1" source="J12rvj43BmPWwBxgD0U2-5" target="J12rvj43BmPWwBxgD0U2-7" parent="VUR_6pwl2YzXU2F9GqZp-1">
          <mxGeometry relative="1" as="geometry" />
        </mxCell>
        <mxCell id="J12rvj43BmPWwBxgD0U2-4" style="edgeStyle=none;rounded=0;orthogonalLoop=1;jettySize=auto;html=1;exitX=1;exitY=1;exitDx=0;exitDy=0;entryX=1;entryY=0;entryDx=0;entryDy=0;fontFamily=Verdana;fontSize=17;" edge="1" source="J12rvj43BmPWwBxgD0U2-5" target="J12rvj43BmPWwBxgD0U2-8" parent="VUR_6pwl2YzXU2F9GqZp-1">
          <mxGeometry relative="1" as="geometry" />
        </mxCell>
        <mxCell id="cUdZ8KneDiB4exjZVaWh-2" style="edgeStyle=none;rounded=0;orthogonalLoop=1;jettySize=auto;html=1;exitX=0.5;exitY=1;exitDx=0;exitDy=0;entryX=0.5;entryY=0;entryDx=0;entryDy=0;fontFamily=Verdana;fontSize=17;" edge="1" parent="VUR_6pwl2YzXU2F9GqZp-1" source="J12rvj43BmPWwBxgD0U2-5" target="cUdZ8KneDiB4exjZVaWh-1">
          <mxGeometry relative="1" as="geometry" />
        </mxCell>
        <mxCell id="J12rvj43BmPWwBxgD0U2-5" value="" style="ellipse;whiteSpace=wrap;html=1;aspect=fixed;fontFamily=Times New Roman;fontSize=17;" vertex="1" parent="VUR_6pwl2YzXU2F9GqZp-1">
          <mxGeometry x="605" y="40" width="50" height="50" as="geometry" />
        </mxCell>
        <mxCell id="J12rvj43BmPWwBxgD0U2-6" value="`(b)`" style="text;html=1;strokeColor=none;fillColor=none;align=center;verticalAlign=middle;whiteSpace=wrap;rounded=0;fontFamily=Times New Roman;fontSize=17;" vertex="1" parent="VUR_6pwl2YzXU2F9GqZp-1">
          <mxGeometry x="530" y="420" width="200" height="30" as="geometry" />
        </mxCell>
        <mxCell id="J12rvj43BmPWwBxgD0U2-7" value="`x_9`" style="whiteSpace=wrap;html=1;aspect=fixed;fontFamily=Verdana;fontSize=17;" vertex="1" parent="VUR_6pwl2YzXU2F9GqZp-1">
          <mxGeometry x="535" y="125" width="40" height="40" as="geometry" />
        </mxCell>
        <mxCell id="J12rvj43BmPWwBxgD0U2-8" value="`x_2`" style="whiteSpace=wrap;html=1;aspect=fixed;fontFamily=Verdana;fontSize=17;" vertex="1" parent="VUR_6pwl2YzXU2F9GqZp-1">
          <mxGeometry x="670" y="125" width="40" height="40" as="geometry" />
        </mxCell>
        <mxCell id="J12rvj43BmPWwBxgD0U2-10" style="edgeStyle=none;rounded=0;orthogonalLoop=1;jettySize=auto;html=1;exitX=0;exitY=1;exitDx=0;exitDy=0;fontFamily=Verdana;fontSize=17;" edge="1" source="J12rvj43BmPWwBxgD0U2-13" target="J12rvj43BmPWwBxgD0U2-15" parent="VUR_6pwl2YzXU2F9GqZp-1">
          <mxGeometry relative="1" as="geometry" />
        </mxCell>
        <mxCell id="J12rvj43BmPWwBxgD0U2-11" style="edgeStyle=none;rounded=0;orthogonalLoop=1;jettySize=auto;html=1;exitX=0.5;exitY=1;exitDx=0;exitDy=0;fontFamily=Verdana;fontSize=17;" edge="1" source="J12rvj43BmPWwBxgD0U2-13" target="J12rvj43BmPWwBxgD0U2-14" parent="VUR_6pwl2YzXU2F9GqZp-1">
          <mxGeometry relative="1" as="geometry" />
        </mxCell>
        <mxCell id="J12rvj43BmPWwBxgD0U2-12" style="edgeStyle=none;rounded=0;orthogonalLoop=1;jettySize=auto;html=1;exitX=1;exitY=1;exitDx=0;exitDy=0;fontFamily=Verdana;fontSize=17;" edge="1" source="J12rvj43BmPWwBxgD0U2-13" target="J12rvj43BmPWwBxgD0U2-16" parent="VUR_6pwl2YzXU2F9GqZp-1">
          <mxGeometry relative="1" as="geometry" />
        </mxCell>
        <mxCell id="J12rvj43BmPWwBxgD0U2-13" value="" style="ellipse;whiteSpace=wrap;html=1;aspect=fixed;fontFamily=Times New Roman;fontSize=17;" vertex="1" parent="VUR_6pwl2YzXU2F9GqZp-1">
          <mxGeometry x="705" y="265" width="50" height="50" as="geometry" />
        </mxCell>
        <mxCell id="J12rvj43BmPWwBxgD0U2-14" value="`x_4`" style="ellipse;whiteSpace=wrap;html=1;aspect=fixed;fontFamily=Verdana;fontSize=17;" vertex="1" parent="VUR_6pwl2YzXU2F9GqZp-1">
          <mxGeometry x="705" y="340" width="50" height="50" as="geometry" />
        </mxCell>
        <mxCell id="J12rvj43BmPWwBxgD0U2-15" value="`x_5`" style="ellipse;whiteSpace=wrap;html=1;aspect=fixed;fontFamily=Verdana;fontSize=17;" vertex="1" parent="VUR_6pwl2YzXU2F9GqZp-1">
          <mxGeometry x="640" y="340" width="50" height="50" as="geometry" />
        </mxCell>
        <mxCell id="J12rvj43BmPWwBxgD0U2-16" value="`x_3`" style="ellipse;whiteSpace=wrap;html=1;aspect=fixed;fontFamily=Verdana;fontSize=17;" vertex="1" parent="VUR_6pwl2YzXU2F9GqZp-1">
          <mxGeometry x="770" y="340" width="50" height="50" as="geometry" />
        </mxCell>
        <mxCell id="J12rvj43BmPWwBxgD0U2-17" value="`x_1`" style="whiteSpace=wrap;html=1;aspect=fixed;fontFamily=Verdana;fontSize=17;" vertex="1" parent="VUR_6pwl2YzXU2F9GqZp-1">
          <mxGeometry x="710" y="125" width="40" height="40" as="geometry" />
        </mxCell>
        <mxCell id="J12rvj43BmPWwBxgD0U2-20" style="edgeStyle=none;rounded=0;orthogonalLoop=1;jettySize=auto;html=1;exitX=0.5;exitY=1;exitDx=0;exitDy=0;entryX=0.5;entryY=0;entryDx=0;entryDy=0;fontFamily=Verdana;fontSize=17;" edge="1" parent="VUR_6pwl2YzXU2F9GqZp-1" source="J12rvj43BmPWwBxgD0U2-19" target="J12rvj43BmPWwBxgD0U2-13">
          <mxGeometry relative="1" as="geometry" />
        </mxCell>
        <mxCell id="J12rvj43BmPWwBxgD0U2-19" value="" style="whiteSpace=wrap;html=1;aspect=fixed;fontFamily=Verdana;fontSize=17;" vertex="1" parent="VUR_6pwl2YzXU2F9GqZp-1">
          <mxGeometry x="710" y="210" width="40" height="40" as="geometry" />
        </mxCell>
        <mxCell id="cUdZ8KneDiB4exjZVaWh-0" value="NIL" style="text;html=1;strokeColor=none;fillColor=none;align=center;verticalAlign=middle;whiteSpace=wrap;rounded=0;fontFamily=Times New Roman;fontSize=17;" vertex="1" parent="VUR_6pwl2YzXU2F9GqZp-1">
          <mxGeometry x="607.5" y="210" width="45" height="30" as="geometry" />
        </mxCell>
        <mxCell id="cUdZ8KneDiB4exjZVaWh-3" style="edgeStyle=none;rounded=0;orthogonalLoop=1;jettySize=auto;html=1;exitX=0.5;exitY=1;exitDx=0;exitDy=0;entryX=0.5;entryY=0;entryDx=0;entryDy=0;fontFamily=Verdana;fontSize=17;" edge="1" parent="VUR_6pwl2YzXU2F9GqZp-1" source="cUdZ8KneDiB4exjZVaWh-1" target="cUdZ8KneDiB4exjZVaWh-0">
          <mxGeometry relative="1" as="geometry" />
        </mxCell>
        <mxCell id="cUdZ8KneDiB4exjZVaWh-4" style="edgeStyle=none;rounded=0;orthogonalLoop=1;jettySize=auto;html=1;exitX=1;exitY=1;exitDx=0;exitDy=0;entryX=0.5;entryY=0;entryDx=0;entryDy=0;fontFamily=Verdana;fontSize=17;" edge="1" parent="VUR_6pwl2YzXU2F9GqZp-1" source="cUdZ8KneDiB4exjZVaWh-1" target="J12rvj43BmPWwBxgD0U2-19">
          <mxGeometry relative="1" as="geometry" />
        </mxCell>
        <mxCell id="cUdZ8KneDiB4exjZVaWh-14" style="edgeStyle=none;rounded=0;orthogonalLoop=1;jettySize=auto;html=1;exitX=0;exitY=1;exitDx=0;exitDy=0;entryX=0.5;entryY=0;entryDx=0;entryDy=0;fontFamily=Verdana;fontSize=17;" edge="1" parent="VUR_6pwl2YzXU2F9GqZp-1" source="cUdZ8KneDiB4exjZVaWh-1" target="cUdZ8KneDiB4exjZVaWh-13">
          <mxGeometry relative="1" as="geometry" />
        </mxCell>
        <mxCell id="cUdZ8KneDiB4exjZVaWh-1" value="" style="ellipse;whiteSpace=wrap;html=1;aspect=fixed;fontFamily=Times New Roman;fontSize=17;" vertex="1" parent="VUR_6pwl2YzXU2F9GqZp-1">
          <mxGeometry x="605" y="120" width="50" height="50" as="geometry" />
        </mxCell>
        <mxCell id="cUdZ8KneDiB4exjZVaWh-5" style="edgeStyle=none;rounded=0;orthogonalLoop=1;jettySize=auto;html=1;exitX=0;exitY=1;exitDx=0;exitDy=0;fontFamily=Verdana;fontSize=17;" edge="1" source="cUdZ8KneDiB4exjZVaWh-8" target="cUdZ8KneDiB4exjZVaWh-10" parent="VUR_6pwl2YzXU2F9GqZp-1">
          <mxGeometry relative="1" as="geometry" />
        </mxCell>
        <mxCell id="cUdZ8KneDiB4exjZVaWh-6" style="edgeStyle=none;rounded=0;orthogonalLoop=1;jettySize=auto;html=1;exitX=0.5;exitY=1;exitDx=0;exitDy=0;fontFamily=Verdana;fontSize=17;" edge="1" source="cUdZ8KneDiB4exjZVaWh-8" target="cUdZ8KneDiB4exjZVaWh-9" parent="VUR_6pwl2YzXU2F9GqZp-1">
          <mxGeometry relative="1" as="geometry" />
        </mxCell>
        <mxCell id="cUdZ8KneDiB4exjZVaWh-7" style="edgeStyle=none;rounded=0;orthogonalLoop=1;jettySize=auto;html=1;exitX=1;exitY=1;exitDx=0;exitDy=0;fontFamily=Verdana;fontSize=17;" edge="1" source="cUdZ8KneDiB4exjZVaWh-8" target="cUdZ8KneDiB4exjZVaWh-11" parent="VUR_6pwl2YzXU2F9GqZp-1">
          <mxGeometry relative="1" as="geometry" />
        </mxCell>
        <mxCell id="cUdZ8KneDiB4exjZVaWh-8" value="" style="ellipse;whiteSpace=wrap;html=1;aspect=fixed;fontFamily=Times New Roman;fontSize=17;" vertex="1" parent="VUR_6pwl2YzXU2F9GqZp-1">
          <mxGeometry x="505" y="265" width="50" height="50" as="geometry" />
        </mxCell>
        <mxCell id="cUdZ8KneDiB4exjZVaWh-9" value="`x_7`" style="ellipse;whiteSpace=wrap;html=1;aspect=fixed;fontFamily=Verdana;fontSize=17;" vertex="1" parent="VUR_6pwl2YzXU2F9GqZp-1">
          <mxGeometry x="505" y="340" width="50" height="50" as="geometry" />
        </mxCell>
        <mxCell id="cUdZ8KneDiB4exjZVaWh-10" value="`x_8`" style="ellipse;whiteSpace=wrap;html=1;aspect=fixed;fontFamily=Verdana;fontSize=17;" vertex="1" parent="VUR_6pwl2YzXU2F9GqZp-1">
          <mxGeometry x="440" y="340" width="50" height="50" as="geometry" />
        </mxCell>
        <mxCell id="cUdZ8KneDiB4exjZVaWh-11" value="`x_6`" style="ellipse;whiteSpace=wrap;html=1;aspect=fixed;fontFamily=Verdana;fontSize=17;" vertex="1" parent="VUR_6pwl2YzXU2F9GqZp-1">
          <mxGeometry x="570" y="340" width="50" height="50" as="geometry" />
        </mxCell>
        <mxCell id="cUdZ8KneDiB4exjZVaWh-12" style="edgeStyle=none;rounded=0;orthogonalLoop=1;jettySize=auto;html=1;exitX=0.5;exitY=1;exitDx=0;exitDy=0;entryX=0.5;entryY=0;entryDx=0;entryDy=0;fontFamily=Verdana;fontSize=17;" edge="1" source="cUdZ8KneDiB4exjZVaWh-13" target="cUdZ8KneDiB4exjZVaWh-8" parent="VUR_6pwl2YzXU2F9GqZp-1">
          <mxGeometry relative="1" as="geometry" />
        </mxCell>
        <mxCell id="cUdZ8KneDiB4exjZVaWh-13" value="" style="whiteSpace=wrap;html=1;aspect=fixed;fontFamily=Verdana;fontSize=17;" vertex="1" parent="VUR_6pwl2YzXU2F9GqZp-1">
          <mxGeometry x="510" y="210" width="40" height="40" as="geometry" />
        </mxCell>
        <mxCell id="cUdZ8KneDiB4exjZVaWh-15" style="edgeStyle=none;rounded=0;orthogonalLoop=1;jettySize=auto;html=1;exitX=0;exitY=1;exitDx=0;exitDy=0;entryX=0.5;entryY=0;entryDx=0;entryDy=0;fontFamily=Verdana;fontSize=17;" edge="1" source="cUdZ8KneDiB4exjZVaWh-18" target="cUdZ8KneDiB4exjZVaWh-20" parent="VUR_6pwl2YzXU2F9GqZp-1">
          <mxGeometry relative="1" as="geometry" />
        </mxCell>
        <mxCell id="cUdZ8KneDiB4exjZVaWh-16" style="edgeStyle=none;rounded=0;orthogonalLoop=1;jettySize=auto;html=1;exitX=1;exitY=1;exitDx=0;exitDy=0;entryX=1;entryY=0;entryDx=0;entryDy=0;fontFamily=Verdana;fontSize=17;" edge="1" source="cUdZ8KneDiB4exjZVaWh-18" target="cUdZ8KneDiB4exjZVaWh-21" parent="VUR_6pwl2YzXU2F9GqZp-1">
          <mxGeometry relative="1" as="geometry" />
        </mxCell>
        <mxCell id="cUdZ8KneDiB4exjZVaWh-17" style="edgeStyle=none;rounded=0;orthogonalLoop=1;jettySize=auto;html=1;exitX=0.5;exitY=1;exitDx=0;exitDy=0;entryX=0.5;entryY=0;entryDx=0;entryDy=0;fontFamily=Verdana;fontSize=17;" edge="1" source="cUdZ8KneDiB4exjZVaWh-18" target="cUdZ8KneDiB4exjZVaWh-36" parent="VUR_6pwl2YzXU2F9GqZp-1">
          <mxGeometry relative="1" as="geometry" />
        </mxCell>
        <mxCell id="cUdZ8KneDiB4exjZVaWh-18" value="" style="ellipse;whiteSpace=wrap;html=1;aspect=fixed;fontFamily=Times New Roman;fontSize=17;" vertex="1" parent="VUR_6pwl2YzXU2F9GqZp-1">
          <mxGeometry x="195" y="40" width="50" height="50" as="geometry" />
        </mxCell>
        <mxCell id="cUdZ8KneDiB4exjZVaWh-19" value="`(a)`" style="text;html=1;strokeColor=none;fillColor=none;align=center;verticalAlign=middle;whiteSpace=wrap;rounded=0;fontFamily=Times New Roman;fontSize=17;" vertex="1" parent="VUR_6pwl2YzXU2F9GqZp-1">
          <mxGeometry x="120" y="420" width="200" height="30" as="geometry" />
        </mxCell>
        <mxCell id="cUdZ8KneDiB4exjZVaWh-20" value="`x_9`" style="whiteSpace=wrap;html=1;aspect=fixed;fontFamily=Verdana;fontSize=17;" vertex="1" parent="VUR_6pwl2YzXU2F9GqZp-1">
          <mxGeometry x="125" y="125" width="40" height="40" as="geometry" />
        </mxCell>
        <mxCell id="cUdZ8KneDiB4exjZVaWh-21" value="`x_2`" style="whiteSpace=wrap;html=1;aspect=fixed;fontFamily=Verdana;fontSize=17;" vertex="1" parent="VUR_6pwl2YzXU2F9GqZp-1">
          <mxGeometry x="260" y="125" width="40" height="40" as="geometry" />
        </mxCell>
        <mxCell id="cUdZ8KneDiB4exjZVaWh-22" style="edgeStyle=none;rounded=0;orthogonalLoop=1;jettySize=auto;html=1;exitX=0;exitY=1;exitDx=0;exitDy=0;fontFamily=Verdana;fontSize=17;" edge="1" source="cUdZ8KneDiB4exjZVaWh-25" target="cUdZ8KneDiB4exjZVaWh-27" parent="VUR_6pwl2YzXU2F9GqZp-1">
          <mxGeometry relative="1" as="geometry" />
        </mxCell>
        <mxCell id="cUdZ8KneDiB4exjZVaWh-23" style="edgeStyle=none;rounded=0;orthogonalLoop=1;jettySize=auto;html=1;exitX=0.5;exitY=1;exitDx=0;exitDy=0;fontFamily=Verdana;fontSize=17;" edge="1" source="cUdZ8KneDiB4exjZVaWh-25" target="cUdZ8KneDiB4exjZVaWh-26" parent="VUR_6pwl2YzXU2F9GqZp-1">
          <mxGeometry relative="1" as="geometry" />
        </mxCell>
        <mxCell id="cUdZ8KneDiB4exjZVaWh-24" style="edgeStyle=none;rounded=0;orthogonalLoop=1;jettySize=auto;html=1;exitX=1;exitY=1;exitDx=0;exitDy=0;fontFamily=Verdana;fontSize=17;" edge="1" source="cUdZ8KneDiB4exjZVaWh-25" target="cUdZ8KneDiB4exjZVaWh-28" parent="VUR_6pwl2YzXU2F9GqZp-1">
          <mxGeometry relative="1" as="geometry" />
        </mxCell>
        <mxCell id="cUdZ8KneDiB4exjZVaWh-25" value="" style="ellipse;whiteSpace=wrap;html=1;aspect=fixed;fontFamily=Times New Roman;fontSize=17;" vertex="1" parent="VUR_6pwl2YzXU2F9GqZp-1">
          <mxGeometry x="295" y="265" width="50" height="50" as="geometry" />
        </mxCell>
        <mxCell id="cUdZ8KneDiB4exjZVaWh-26" value="`x_4`" style="ellipse;whiteSpace=wrap;html=1;aspect=fixed;fontFamily=Verdana;fontSize=17;" vertex="1" parent="VUR_6pwl2YzXU2F9GqZp-1">
          <mxGeometry x="295" y="340" width="50" height="50" as="geometry" />
        </mxCell>
        <mxCell id="cUdZ8KneDiB4exjZVaWh-27" value="`x_5`" style="ellipse;whiteSpace=wrap;html=1;aspect=fixed;fontFamily=Verdana;fontSize=17;" vertex="1" parent="VUR_6pwl2YzXU2F9GqZp-1">
          <mxGeometry x="230" y="340" width="50" height="50" as="geometry" />
        </mxCell>
        <mxCell id="cUdZ8KneDiB4exjZVaWh-28" value="`x_3`" style="ellipse;whiteSpace=wrap;html=1;aspect=fixed;fontFamily=Verdana;fontSize=17;" vertex="1" parent="VUR_6pwl2YzXU2F9GqZp-1">
          <mxGeometry x="360" y="340" width="50" height="50" as="geometry" />
        </mxCell>
        <mxCell id="cUdZ8KneDiB4exjZVaWh-29" value="`x_1`" style="whiteSpace=wrap;html=1;aspect=fixed;fontFamily=Verdana;fontSize=17;" vertex="1" parent="VUR_6pwl2YzXU2F9GqZp-1">
          <mxGeometry x="300" y="125" width="40" height="40" as="geometry" />
        </mxCell>
        <mxCell id="cUdZ8KneDiB4exjZVaWh-30" style="edgeStyle=none;rounded=0;orthogonalLoop=1;jettySize=auto;html=1;exitX=0.5;exitY=1;exitDx=0;exitDy=0;entryX=0.5;entryY=0;entryDx=0;entryDy=0;fontFamily=Verdana;fontSize=17;" edge="1" source="cUdZ8KneDiB4exjZVaWh-31" target="cUdZ8KneDiB4exjZVaWh-25" parent="VUR_6pwl2YzXU2F9GqZp-1">
          <mxGeometry relative="1" as="geometry" />
        </mxCell>
        <mxCell id="cUdZ8KneDiB4exjZVaWh-31" value="" style="whiteSpace=wrap;html=1;aspect=fixed;fontFamily=Verdana;fontSize=17;" vertex="1" parent="VUR_6pwl2YzXU2F9GqZp-1">
          <mxGeometry x="300" y="210" width="40" height="40" as="geometry" />
        </mxCell>
        <mxCell id="cUdZ8KneDiB4exjZVaWh-32" value="NIL" style="text;html=1;strokeColor=none;fillColor=none;align=center;verticalAlign=middle;whiteSpace=wrap;rounded=0;fontFamily=Times New Roman;fontSize=17;" vertex="1" parent="VUR_6pwl2YzXU2F9GqZp-1">
          <mxGeometry x="197.5" y="210" width="45" height="30" as="geometry" />
        </mxCell>
        <mxCell id="cUdZ8KneDiB4exjZVaWh-33" style="edgeStyle=none;rounded=0;orthogonalLoop=1;jettySize=auto;html=1;exitX=0.5;exitY=1;exitDx=0;exitDy=0;entryX=0.5;entryY=0;entryDx=0;entryDy=0;fontFamily=Verdana;fontSize=17;" edge="1" source="cUdZ8KneDiB4exjZVaWh-36" target="cUdZ8KneDiB4exjZVaWh-32" parent="VUR_6pwl2YzXU2F9GqZp-1">
          <mxGeometry relative="1" as="geometry" />
        </mxCell>
        <mxCell id="cUdZ8KneDiB4exjZVaWh-34" style="edgeStyle=none;rounded=0;orthogonalLoop=1;jettySize=auto;html=1;exitX=1;exitY=1;exitDx=0;exitDy=0;entryX=0.5;entryY=0;entryDx=0;entryDy=0;fontFamily=Verdana;fontSize=17;" edge="1" source="cUdZ8KneDiB4exjZVaWh-36" target="cUdZ8KneDiB4exjZVaWh-31" parent="VUR_6pwl2YzXU2F9GqZp-1">
          <mxGeometry relative="1" as="geometry" />
        </mxCell>
        <mxCell id="cUdZ8KneDiB4exjZVaWh-35" style="edgeStyle=none;rounded=0;orthogonalLoop=1;jettySize=auto;html=1;exitX=0;exitY=1;exitDx=0;exitDy=0;entryX=0.5;entryY=0;entryDx=0;entryDy=0;fontFamily=Verdana;fontSize=17;" edge="1" source="cUdZ8KneDiB4exjZVaWh-36" target="cUdZ8KneDiB4exjZVaWh-45" parent="VUR_6pwl2YzXU2F9GqZp-1">
          <mxGeometry relative="1" as="geometry" />
        </mxCell>
        <mxCell id="cUdZ8KneDiB4exjZVaWh-36" value="" style="ellipse;whiteSpace=wrap;html=1;aspect=fixed;fontFamily=Times New Roman;fontSize=17;" vertex="1" parent="VUR_6pwl2YzXU2F9GqZp-1">
          <mxGeometry x="195" y="120" width="50" height="50" as="geometry" />
        </mxCell>
        <mxCell id="cUdZ8KneDiB4exjZVaWh-37" style="edgeStyle=none;rounded=0;orthogonalLoop=1;jettySize=auto;html=1;exitX=0;exitY=1;exitDx=0;exitDy=0;fontFamily=Verdana;fontSize=17;" edge="1" source="cUdZ8KneDiB4exjZVaWh-40" target="cUdZ8KneDiB4exjZVaWh-42" parent="VUR_6pwl2YzXU2F9GqZp-1">
          <mxGeometry relative="1" as="geometry" />
        </mxCell>
        <mxCell id="cUdZ8KneDiB4exjZVaWh-38" style="edgeStyle=none;rounded=0;orthogonalLoop=1;jettySize=auto;html=1;exitX=0.5;exitY=1;exitDx=0;exitDy=0;fontFamily=Verdana;fontSize=17;" edge="1" source="cUdZ8KneDiB4exjZVaWh-40" target="cUdZ8KneDiB4exjZVaWh-41" parent="VUR_6pwl2YzXU2F9GqZp-1">
          <mxGeometry relative="1" as="geometry" />
        </mxCell>
        <mxCell id="cUdZ8KneDiB4exjZVaWh-39" style="edgeStyle=none;rounded=0;orthogonalLoop=1;jettySize=auto;html=1;exitX=1;exitY=1;exitDx=0;exitDy=0;fontFamily=Verdana;fontSize=17;" edge="1" source="cUdZ8KneDiB4exjZVaWh-40" target="cUdZ8KneDiB4exjZVaWh-43" parent="VUR_6pwl2YzXU2F9GqZp-1">
          <mxGeometry relative="1" as="geometry" />
        </mxCell>
        <mxCell id="cUdZ8KneDiB4exjZVaWh-40" value="" style="ellipse;whiteSpace=wrap;html=1;aspect=fixed;fontFamily=Times New Roman;fontSize=17;" vertex="1" parent="VUR_6pwl2YzXU2F9GqZp-1">
          <mxGeometry x="95" y="265" width="50" height="50" as="geometry" />
        </mxCell>
        <mxCell id="cUdZ8KneDiB4exjZVaWh-41" value="`x_7`" style="ellipse;whiteSpace=wrap;html=1;aspect=fixed;fontFamily=Verdana;fontSize=17;" vertex="1" parent="VUR_6pwl2YzXU2F9GqZp-1">
          <mxGeometry x="95" y="340" width="50" height="50" as="geometry" />
        </mxCell>
        <mxCell id="cUdZ8KneDiB4exjZVaWh-42" value="`x_8`" style="ellipse;whiteSpace=wrap;html=1;aspect=fixed;fontFamily=Verdana;fontSize=17;" vertex="1" parent="VUR_6pwl2YzXU2F9GqZp-1">
          <mxGeometry x="30" y="340" width="50" height="50" as="geometry" />
        </mxCell>
        <mxCell id="cUdZ8KneDiB4exjZVaWh-43" value="`x_6`" style="ellipse;whiteSpace=wrap;html=1;aspect=fixed;fontFamily=Verdana;fontSize=17;" vertex="1" parent="VUR_6pwl2YzXU2F9GqZp-1">
          <mxGeometry x="160" y="340" width="50" height="50" as="geometry" />
        </mxCell>
        <mxCell id="cUdZ8KneDiB4exjZVaWh-44" style="edgeStyle=none;rounded=0;orthogonalLoop=1;jettySize=auto;html=1;exitX=0.5;exitY=1;exitDx=0;exitDy=0;entryX=0.5;entryY=0;entryDx=0;entryDy=0;fontFamily=Verdana;fontSize=17;" edge="1" source="cUdZ8KneDiB4exjZVaWh-45" target="cUdZ8KneDiB4exjZVaWh-40" parent="VUR_6pwl2YzXU2F9GqZp-1">
          <mxGeometry relative="1" as="geometry" />
        </mxCell>
        <mxCell id="cUdZ8KneDiB4exjZVaWh-45" value="" style="whiteSpace=wrap;html=1;aspect=fixed;fontFamily=Verdana;fontSize=17;" vertex="1" parent="VUR_6pwl2YzXU2F9GqZp-1">
          <mxGeometry x="100" y="210" width="40" height="40" as="geometry" />
        </mxCell>
        <mxCell id="cUdZ8KneDiB4exjZVaWh-46" value="`x_{10}`" style="whiteSpace=wrap;html=1;aspect=fixed;fontFamily=Verdana;fontSize=17;" vertex="1" parent="VUR_6pwl2YzXU2F9GqZp-1">
          <mxGeometry x="85" y="125" width="40" height="40" as="geometry" />
        </mxCell>
      </root>
    </mxGraphModel>
  </diagram>
  <diagram id="1_B802Mp8BwvE5GGBzz-" name="ftr malformed">
    <mxGraphModel dx="1159" dy="784" grid="1" gridSize="10" guides="1" tooltips="1" connect="1" arrows="1" fold="1" page="1" pageScale="1" pageWidth="850" pageHeight="1100" math="1" shadow="0">
      <root>
        <mxCell id="0" />
        <mxCell id="1" parent="0" />
        <mxCell id="g2cnbHIjZMrkfke6pm3t-1" style="edgeStyle=none;rounded=0;orthogonalLoop=1;jettySize=auto;html=1;exitX=0;exitY=1;exitDx=0;exitDy=0;entryX=0.5;entryY=0;entryDx=0;entryDy=0;fontFamily=Verdana;fontSize=17;" edge="1" parent="1" source="g2cnbHIjZMrkfke6pm3t-4" target="g2cnbHIjZMrkfke6pm3t-5">
          <mxGeometry relative="1" as="geometry" />
        </mxCell>
        <mxCell id="g2cnbHIjZMrkfke6pm3t-2" style="edgeStyle=none;rounded=0;orthogonalLoop=1;jettySize=auto;html=1;exitX=1;exitY=1;exitDx=0;exitDy=0;entryX=0.5;entryY=0;entryDx=0;entryDy=0;fontFamily=Verdana;fontSize=17;" edge="1" parent="1" source="g2cnbHIjZMrkfke6pm3t-4" target="g2cnbHIjZMrkfke6pm3t-33">
          <mxGeometry relative="1" as="geometry">
            <mxPoint x="282.5" y="125" as="targetPoint" />
          </mxGeometry>
        </mxCell>
        <mxCell id="g2cnbHIjZMrkfke6pm3t-3" style="edgeStyle=none;rounded=0;orthogonalLoop=1;jettySize=auto;html=1;exitX=0.5;exitY=1;exitDx=0;exitDy=0;entryX=0.5;entryY=0;entryDx=0;entryDy=0;fontFamily=Verdana;fontSize=17;" edge="1" parent="1" source="g2cnbHIjZMrkfke6pm3t-4" target="g2cnbHIjZMrkfke6pm3t-21">
          <mxGeometry relative="1" as="geometry" />
        </mxCell>
        <mxCell id="g2cnbHIjZMrkfke6pm3t-4" value="1" style="ellipse;whiteSpace=wrap;html=1;aspect=fixed;fontFamily=Times New Roman;fontSize=17;" vertex="1" parent="1">
          <mxGeometry x="195" y="40" width="50" height="50" as="geometry" />
        </mxCell>
        <mxCell id="g2cnbHIjZMrkfke6pm3t-5" value="[]" style="whiteSpace=wrap;html=1;aspect=fixed;fontFamily=Verdana;fontSize=17;" vertex="1" parent="1">
          <mxGeometry x="120" y="120" width="40" height="40" as="geometry" />
        </mxCell>
        <mxCell id="g2cnbHIjZMrkfke6pm3t-37" style="edgeStyle=none;rounded=0;orthogonalLoop=1;jettySize=auto;html=1;exitX=0.5;exitY=1;exitDx=0;exitDy=0;entryX=0.5;entryY=0;entryDx=0;entryDy=0;fontFamily=Verdana;fontSize=15;" edge="1" parent="1" source="g2cnbHIjZMrkfke6pm3t-17" target="g2cnbHIjZMrkfke6pm3t-36">
          <mxGeometry relative="1" as="geometry" />
        </mxCell>
        <mxCell id="g2cnbHIjZMrkfke6pm3t-17" value="..." style="text;html=1;strokeColor=none;fillColor=none;align=center;verticalAlign=middle;whiteSpace=wrap;rounded=0;fontFamily=Times New Roman;fontSize=17;" vertex="1" parent="1">
          <mxGeometry x="197.5" y="210" width="45" height="30" as="geometry" />
        </mxCell>
        <mxCell id="g2cnbHIjZMrkfke6pm3t-18" style="edgeStyle=none;rounded=0;orthogonalLoop=1;jettySize=auto;html=1;exitX=0.5;exitY=1;exitDx=0;exitDy=0;entryX=0.5;entryY=0;entryDx=0;entryDy=0;fontFamily=Verdana;fontSize=17;" edge="1" parent="1" source="g2cnbHIjZMrkfke6pm3t-21" target="g2cnbHIjZMrkfke6pm3t-17">
          <mxGeometry relative="1" as="geometry" />
        </mxCell>
        <mxCell id="g2cnbHIjZMrkfke6pm3t-19" style="edgeStyle=none;rounded=0;orthogonalLoop=1;jettySize=auto;html=1;exitX=1;exitY=1;exitDx=0;exitDy=0;entryX=0.5;entryY=0;entryDx=0;entryDy=0;fontFamily=Verdana;fontSize=17;" edge="1" parent="1" source="g2cnbHIjZMrkfke6pm3t-21" target="g2cnbHIjZMrkfke6pm3t-35">
          <mxGeometry relative="1" as="geometry">
            <mxPoint x="320" y="210" as="targetPoint" />
          </mxGeometry>
        </mxCell>
        <mxCell id="g2cnbHIjZMrkfke6pm3t-20" style="edgeStyle=none;rounded=0;orthogonalLoop=1;jettySize=auto;html=1;exitX=0;exitY=1;exitDx=0;exitDy=0;entryX=0.5;entryY=0;entryDx=0;entryDy=0;fontFamily=Verdana;fontSize=17;" edge="1" parent="1" source="g2cnbHIjZMrkfke6pm3t-21" target="g2cnbHIjZMrkfke6pm3t-30">
          <mxGeometry relative="1" as="geometry" />
        </mxCell>
        <mxCell id="g2cnbHIjZMrkfke6pm3t-21" value="2" style="ellipse;whiteSpace=wrap;html=1;aspect=fixed;fontFamily=Times New Roman;fontSize=17;" vertex="1" parent="1">
          <mxGeometry x="195" y="120" width="50" height="50" as="geometry" />
        </mxCell>
        <mxCell id="g2cnbHIjZMrkfke6pm3t-30" value="[]" style="whiteSpace=wrap;html=1;aspect=fixed;fontFamily=Verdana;fontSize=17;" vertex="1" parent="1">
          <mxGeometry x="120" y="200" width="40" height="40" as="geometry" />
        </mxCell>
        <mxCell id="g2cnbHIjZMrkfke6pm3t-33" value="r[1][1], r[1][2], ..." style="rounded=0;whiteSpace=wrap;html=1;fontFamily=Verdana;fontSize=15;" vertex="1" parent="1">
          <mxGeometry x="270" y="120" width="170" height="40" as="geometry" />
        </mxCell>
        <mxCell id="g2cnbHIjZMrkfke6pm3t-35" value="r[1][1], r[1][2], ..." style="rounded=0;whiteSpace=wrap;html=1;fontFamily=Verdana;fontSize=15;" vertex="1" parent="1">
          <mxGeometry x="270" y="200" width="170" height="40" as="geometry" />
        </mxCell>
        <mxCell id="g2cnbHIjZMrkfke6pm3t-39" style="edgeStyle=none;rounded=0;orthogonalLoop=1;jettySize=auto;html=1;exitX=1;exitY=1;exitDx=0;exitDy=0;fontFamily=Verdana;fontSize=15;entryX=0.5;entryY=0;entryDx=0;entryDy=0;" edge="1" parent="1" source="g2cnbHIjZMrkfke6pm3t-36" target="g2cnbHIjZMrkfke6pm3t-38">
          <mxGeometry relative="1" as="geometry" />
        </mxCell>
        <mxCell id="g2cnbHIjZMrkfke6pm3t-41" style="edgeStyle=none;rounded=0;orthogonalLoop=1;jettySize=auto;html=1;exitX=0;exitY=1;exitDx=0;exitDy=0;entryX=0.5;entryY=0;entryDx=0;entryDy=0;fontFamily=Verdana;fontSize=15;" edge="1" parent="1" source="g2cnbHIjZMrkfke6pm3t-36" target="g2cnbHIjZMrkfke6pm3t-40">
          <mxGeometry relative="1" as="geometry" />
        </mxCell>
        <mxCell id="g2cnbHIjZMrkfke6pm3t-43" style="edgeStyle=none;rounded=0;orthogonalLoop=1;jettySize=auto;html=1;exitX=0.5;exitY=1;exitDx=0;exitDy=0;entryX=0.5;entryY=0;entryDx=0;entryDy=0;fontFamily=Verdana;fontSize=15;" edge="1" parent="1" source="g2cnbHIjZMrkfke6pm3t-36" target="g2cnbHIjZMrkfke6pm3t-42">
          <mxGeometry relative="1" as="geometry" />
        </mxCell>
        <mxCell id="g2cnbHIjZMrkfke6pm3t-36" value="`i`" style="ellipse;whiteSpace=wrap;html=1;aspect=fixed;fontFamily=Times New Roman;fontSize=17;" vertex="1" parent="1">
          <mxGeometry x="195" y="280" width="50" height="50" as="geometry" />
        </mxCell>
        <mxCell id="g2cnbHIjZMrkfke6pm3t-38" value="r[`i`][1], r[`i`][2], ..." style="rounded=0;whiteSpace=wrap;html=1;fontFamily=Verdana;fontSize=15;" vertex="1" parent="1">
          <mxGeometry x="270" y="360" width="170" height="40" as="geometry" />
        </mxCell>
        <mxCell id="g2cnbHIjZMrkfke6pm3t-40" value="n[`i`][1], n[`i`][2], ..." style="rounded=0;whiteSpace=wrap;html=1;fontFamily=Verdana;fontSize=15;" vertex="1" parent="1">
          <mxGeometry x="10" y="360" width="170" height="40" as="geometry" />
        </mxCell>
        <mxCell id="g2cnbHIjZMrkfke6pm3t-42" value="..." style="text;html=1;strokeColor=none;fillColor=none;align=center;verticalAlign=middle;whiteSpace=wrap;rounded=0;fontFamily=Times New Roman;fontSize=17;" vertex="1" parent="1">
          <mxGeometry x="197.5" y="370" width="45" height="30" as="geometry" />
        </mxCell>
      </root>
    </mxGraphModel>
  </diagram>
  <diagram name="ftr malformed 2" id="P7Xqqsi_dXSr5T3EDF7F">
    <mxGraphModel dx="1159" dy="784" grid="1" gridSize="10" guides="1" tooltips="1" connect="1" arrows="1" fold="1" page="1" pageScale="1" pageWidth="850" pageHeight="1100" math="1" shadow="0">
      <root>
        <mxCell id="zP8foqD-YszMjnB6_W7f-0" />
        <mxCell id="zP8foqD-YszMjnB6_W7f-1" parent="zP8foqD-YszMjnB6_W7f-0" />
        <mxCell id="zP8foqD-YszMjnB6_W7f-2" style="edgeStyle=none;rounded=0;orthogonalLoop=1;jettySize=auto;html=1;exitX=0;exitY=1;exitDx=0;exitDy=0;entryX=0.5;entryY=0;entryDx=0;entryDy=0;fontFamily=Verdana;fontSize=17;" edge="1" parent="zP8foqD-YszMjnB6_W7f-1" source="zP8foqD-YszMjnB6_W7f-5" target="zP8foqD-YszMjnB6_W7f-6">
          <mxGeometry relative="1" as="geometry" />
        </mxCell>
        <mxCell id="zP8foqD-YszMjnB6_W7f-3" style="edgeStyle=none;rounded=0;orthogonalLoop=1;jettySize=auto;html=1;exitX=1;exitY=1;exitDx=0;exitDy=0;entryX=0.5;entryY=0;entryDx=0;entryDy=0;fontFamily=Verdana;fontSize=17;" edge="1" parent="zP8foqD-YszMjnB6_W7f-1" source="zP8foqD-YszMjnB6_W7f-5" target="zP8foqD-YszMjnB6_W7f-14">
          <mxGeometry relative="1" as="geometry">
            <mxPoint x="342.5" y="125" as="targetPoint" />
          </mxGeometry>
        </mxCell>
        <mxCell id="zP8foqD-YszMjnB6_W7f-4" style="edgeStyle=none;rounded=0;orthogonalLoop=1;jettySize=auto;html=1;exitX=0.5;exitY=1;exitDx=0;exitDy=0;entryX=0.5;entryY=0;entryDx=0;entryDy=0;fontFamily=Verdana;fontSize=17;" edge="1" parent="zP8foqD-YszMjnB6_W7f-1" source="zP8foqD-YszMjnB6_W7f-5" target="zP8foqD-YszMjnB6_W7f-8">
          <mxGeometry relative="1" as="geometry">
            <mxPoint x="280" y="120" as="targetPoint" />
          </mxGeometry>
        </mxCell>
        <mxCell id="zP8foqD-YszMjnB6_W7f-5" value="1" style="ellipse;whiteSpace=wrap;html=1;aspect=fixed;fontFamily=Times New Roman;fontSize=17;" vertex="1" parent="zP8foqD-YszMjnB6_W7f-1">
          <mxGeometry x="255" y="40" width="50" height="50" as="geometry" />
        </mxCell>
        <mxCell id="zP8foqD-YszMjnB6_W7f-6" value="[]" style="whiteSpace=wrap;html=1;aspect=fixed;fontFamily=Verdana;fontSize=17;" vertex="1" parent="zP8foqD-YszMjnB6_W7f-1">
          <mxGeometry x="180" y="120" width="40" height="40" as="geometry" />
        </mxCell>
        <mxCell id="zP8foqD-YszMjnB6_W7f-7" style="edgeStyle=none;rounded=0;orthogonalLoop=1;jettySize=auto;html=1;exitX=0.5;exitY=1;exitDx=0;exitDy=0;entryX=0.5;entryY=0;entryDx=0;entryDy=0;fontFamily=Verdana;fontSize=15;" edge="1" parent="zP8foqD-YszMjnB6_W7f-1" source="zP8foqD-YszMjnB6_W7f-8" target="zP8foqD-YszMjnB6_W7f-19">
          <mxGeometry relative="1" as="geometry" />
        </mxCell>
        <mxCell id="zP8foqD-YszMjnB6_W7f-8" value="..." style="text;html=1;strokeColor=none;fillColor=none;align=center;verticalAlign=middle;whiteSpace=wrap;rounded=0;fontFamily=Times New Roman;fontSize=17;" vertex="1" parent="zP8foqD-YszMjnB6_W7f-1">
          <mxGeometry x="257.5" y="120" width="45" height="30" as="geometry" />
        </mxCell>
        <mxCell id="zP8foqD-YszMjnB6_W7f-14" value="r[1][1], r[1][2], ..." style="rounded=0;whiteSpace=wrap;html=1;fontFamily=Verdana;fontSize=15;" vertex="1" parent="zP8foqD-YszMjnB6_W7f-1">
          <mxGeometry x="330" y="120" width="170" height="40" as="geometry" />
        </mxCell>
        <mxCell id="zP8foqD-YszMjnB6_W7f-16" style="edgeStyle=none;rounded=0;orthogonalLoop=1;jettySize=auto;html=1;exitX=1;exitY=1;exitDx=0;exitDy=0;fontFamily=Verdana;fontSize=15;entryX=0.5;entryY=0;entryDx=0;entryDy=0;" edge="1" parent="zP8foqD-YszMjnB6_W7f-1" source="zP8foqD-YszMjnB6_W7f-19" target="zP8foqD-YszMjnB6_W7f-20">
          <mxGeometry relative="1" as="geometry" />
        </mxCell>
        <mxCell id="zP8foqD-YszMjnB6_W7f-17" style="edgeStyle=none;rounded=0;orthogonalLoop=1;jettySize=auto;html=1;exitX=0;exitY=1;exitDx=0;exitDy=0;entryX=0.5;entryY=0;entryDx=0;entryDy=0;fontFamily=Verdana;fontSize=15;" edge="1" parent="zP8foqD-YszMjnB6_W7f-1" source="zP8foqD-YszMjnB6_W7f-19" target="zP8foqD-YszMjnB6_W7f-21">
          <mxGeometry relative="1" as="geometry" />
        </mxCell>
        <mxCell id="ysqsRqTU0ui77JC4K8sU-2" style="edgeStyle=none;rounded=0;orthogonalLoop=1;jettySize=auto;html=1;exitX=0.5;exitY=1;exitDx=0;exitDy=0;entryX=0.5;entryY=0;entryDx=0;entryDy=0;fontFamily=Verdana;fontSize=15;" edge="1" parent="zP8foqD-YszMjnB6_W7f-1" source="zP8foqD-YszMjnB6_W7f-19" target="ysqsRqTU0ui77JC4K8sU-1">
          <mxGeometry relative="1" as="geometry" />
        </mxCell>
        <mxCell id="zP8foqD-YszMjnB6_W7f-19" value="`i-1`" style="ellipse;whiteSpace=wrap;html=1;aspect=fixed;fontFamily=Times New Roman;fontSize=17;" vertex="1" parent="zP8foqD-YszMjnB6_W7f-1">
          <mxGeometry x="255" y="190" width="50" height="50" as="geometry" />
        </mxCell>
        <mxCell id="zP8foqD-YszMjnB6_W7f-20" value="r[`i-1`][1], r[`i-1`][2], ..." style="rounded=0;whiteSpace=wrap;html=1;fontFamily=Verdana;fontSize=15;" vertex="1" parent="zP8foqD-YszMjnB6_W7f-1">
          <mxGeometry x="330" y="270" width="210" height="40" as="geometry" />
        </mxCell>
        <mxCell id="zP8foqD-YszMjnB6_W7f-21" value="n[`i-1`][1], n[`i-1`][2], ..." style="rounded=0;whiteSpace=wrap;html=1;fontFamily=Verdana;fontSize=15;" vertex="1" parent="zP8foqD-YszMjnB6_W7f-1">
          <mxGeometry x="30" y="270" width="210" height="40" as="geometry" />
        </mxCell>
        <mxCell id="zP8foqD-YszMjnB6_W7f-22" value="..." style="text;html=1;strokeColor=none;fillColor=none;align=center;verticalAlign=middle;whiteSpace=wrap;rounded=0;fontFamily=Times New Roman;fontSize=17;" vertex="1" parent="zP8foqD-YszMjnB6_W7f-1">
          <mxGeometry x="257.5" y="375" width="45" height="30" as="geometry" />
        </mxCell>
        <mxCell id="ysqsRqTU0ui77JC4K8sU-0" value="sub-trees of n[`i`][1]" style="text;html=1;strokeColor=none;fillColor=none;align=center;verticalAlign=middle;whiteSpace=wrap;rounded=0;fontFamily=Verdana;fontSize=15;" vertex="1" parent="zP8foqD-YszMjnB6_W7f-1">
          <mxGeometry x="20" y="310" width="200" height="30" as="geometry" />
        </mxCell>
        <mxCell id="ysqsRqTU0ui77JC4K8sU-4" style="edgeStyle=none;rounded=0;orthogonalLoop=1;jettySize=auto;html=1;exitX=1;exitY=1;exitDx=0;exitDy=0;entryX=0.5;entryY=0;entryDx=0;entryDy=0;fontFamily=Verdana;fontSize=15;" edge="1" parent="zP8foqD-YszMjnB6_W7f-1" source="ysqsRqTU0ui77JC4K8sU-1" target="ysqsRqTU0ui77JC4K8sU-3">
          <mxGeometry relative="1" as="geometry" />
        </mxCell>
        <mxCell id="ysqsRqTU0ui77JC4K8sU-6" style="edgeStyle=none;rounded=0;orthogonalLoop=1;jettySize=auto;html=1;exitX=0;exitY=1;exitDx=0;exitDy=0;entryX=0.5;entryY=0;entryDx=0;entryDy=0;fontFamily=Verdana;fontSize=15;" edge="1" parent="zP8foqD-YszMjnB6_W7f-1" source="ysqsRqTU0ui77JC4K8sU-1" target="ysqsRqTU0ui77JC4K8sU-5">
          <mxGeometry relative="1" as="geometry" />
        </mxCell>
        <mxCell id="ysqsRqTU0ui77JC4K8sU-7" style="edgeStyle=none;rounded=0;orthogonalLoop=1;jettySize=auto;html=1;exitX=0.5;exitY=1;exitDx=0;exitDy=0;entryX=0.5;entryY=0;entryDx=0;entryDy=0;fontFamily=Verdana;fontSize=15;" edge="1" parent="zP8foqD-YszMjnB6_W7f-1" source="ysqsRqTU0ui77JC4K8sU-1" target="zP8foqD-YszMjnB6_W7f-22">
          <mxGeometry relative="1" as="geometry" />
        </mxCell>
        <mxCell id="ysqsRqTU0ui77JC4K8sU-1" value="`i`" style="ellipse;whiteSpace=wrap;html=1;aspect=fixed;fontFamily=Times New Roman;fontSize=17;" vertex="1" parent="zP8foqD-YszMjnB6_W7f-1">
          <mxGeometry x="255" y="280" width="50" height="50" as="geometry" />
        </mxCell>
        <mxCell id="ysqsRqTU0ui77JC4K8sU-3" value="r[`i`][1], r[`i`][2], ..." style="rounded=0;whiteSpace=wrap;html=1;fontFamily=Verdana;fontSize=15;" vertex="1" parent="zP8foqD-YszMjnB6_W7f-1">
          <mxGeometry x="330" y="370" width="210" height="40" as="geometry" />
        </mxCell>
        <mxCell id="ysqsRqTU0ui77JC4K8sU-5" value="n[`i`][2], ..." style="rounded=0;whiteSpace=wrap;html=1;fontFamily=Verdana;fontSize=15;" vertex="1" parent="zP8foqD-YszMjnB6_W7f-1">
          <mxGeometry x="30" y="370" width="210" height="40" as="geometry" />
        </mxCell>
      </root>
    </mxGraphModel>
  </diagram>
  <diagram name="ftr malformed i" id="IL_YDbBzegSlGtVNlAww">
    <mxGraphModel dx="1159" dy="784" grid="1" gridSize="10" guides="1" tooltips="1" connect="1" arrows="1" fold="1" page="1" pageScale="1" pageWidth="850" pageHeight="1100" math="1" shadow="0">
      <root>
        <mxCell id="SNuMMxpqQReHFDGT-ari-0" />
        <mxCell id="SNuMMxpqQReHFDGT-ari-1" parent="SNuMMxpqQReHFDGT-ari-0" />
        <mxCell id="SNuMMxpqQReHFDGT-ari-2" style="edgeStyle=none;rounded=0;orthogonalLoop=1;jettySize=auto;html=1;exitX=0;exitY=1;exitDx=0;exitDy=0;entryX=0.5;entryY=0;entryDx=0;entryDy=0;fontFamily=Verdana;fontSize=17;" edge="1" parent="SNuMMxpqQReHFDGT-ari-1" source="SNuMMxpqQReHFDGT-ari-5" target="C1FAbYNIj-eXt7VANe18-1">
          <mxGeometry relative="1" as="geometry">
            <mxPoint x="200" y="120" as="targetPoint" />
          </mxGeometry>
        </mxCell>
        <mxCell id="SNuMMxpqQReHFDGT-ari-3" style="edgeStyle=none;rounded=0;orthogonalLoop=1;jettySize=auto;html=1;exitX=1;exitY=1;exitDx=0;exitDy=0;entryX=0.5;entryY=0;entryDx=0;entryDy=0;fontFamily=Verdana;fontSize=17;" edge="1" parent="SNuMMxpqQReHFDGT-ari-1" source="SNuMMxpqQReHFDGT-ari-5" target="SNuMMxpqQReHFDGT-ari-9">
          <mxGeometry relative="1" as="geometry">
            <mxPoint x="342.5" y="125" as="targetPoint" />
          </mxGeometry>
        </mxCell>
        <mxCell id="SNuMMxpqQReHFDGT-ari-4" style="edgeStyle=none;rounded=0;orthogonalLoop=1;jettySize=auto;html=1;exitX=0.5;exitY=1;exitDx=0;exitDy=0;entryX=0.5;entryY=0;entryDx=0;entryDy=0;fontFamily=Verdana;fontSize=17;" edge="1" parent="SNuMMxpqQReHFDGT-ari-1" source="SNuMMxpqQReHFDGT-ari-5" target="29oAfkxjsVzLTLWGs3iK-0">
          <mxGeometry relative="1" as="geometry">
            <mxPoint x="280" y="120" as="targetPoint" />
          </mxGeometry>
        </mxCell>
        <mxCell id="SNuMMxpqQReHFDGT-ari-5" value="1" style="ellipse;whiteSpace=wrap;html=1;aspect=fixed;fontFamily=Times New Roman;fontSize=17;" vertex="1" parent="SNuMMxpqQReHFDGT-ari-1">
          <mxGeometry x="255" y="40" width="50" height="50" as="geometry" />
        </mxCell>
        <mxCell id="SNuMMxpqQReHFDGT-ari-7" style="edgeStyle=none;rounded=0;orthogonalLoop=1;jettySize=auto;html=1;exitX=0.5;exitY=1;exitDx=0;exitDy=0;entryX=0.5;entryY=0;entryDx=0;entryDy=0;fontFamily=Verdana;fontSize=15;" edge="1" parent="SNuMMxpqQReHFDGT-ari-1" source="29oAfkxjsVzLTLWGs3iK-1" target="SNuMMxpqQReHFDGT-ari-13">
          <mxGeometry relative="1" as="geometry">
            <mxPoint x="280" y="240" as="sourcePoint" />
          </mxGeometry>
        </mxCell>
        <mxCell id="SNuMMxpqQReHFDGT-ari-9" value="r[1][1], r[1][2], ..." style="rounded=0;whiteSpace=wrap;html=1;fontFamily=Verdana;fontSize=15;" vertex="1" parent="SNuMMxpqQReHFDGT-ari-1">
          <mxGeometry x="330" y="120" width="170" height="40" as="geometry" />
        </mxCell>
        <mxCell id="SNuMMxpqQReHFDGT-ari-10" style="edgeStyle=none;rounded=0;orthogonalLoop=1;jettySize=auto;html=1;exitX=1;exitY=1;exitDx=0;exitDy=0;fontFamily=Verdana;fontSize=15;entryX=0.5;entryY=0;entryDx=0;entryDy=0;" edge="1" parent="SNuMMxpqQReHFDGT-ari-1" source="SNuMMxpqQReHFDGT-ari-13" target="SNuMMxpqQReHFDGT-ari-14">
          <mxGeometry relative="1" as="geometry" />
        </mxCell>
        <mxCell id="SNuMMxpqQReHFDGT-ari-11" style="edgeStyle=none;rounded=0;orthogonalLoop=1;jettySize=auto;html=1;exitX=0;exitY=1;exitDx=0;exitDy=0;entryX=0.5;entryY=0;entryDx=0;entryDy=0;fontFamily=Verdana;fontSize=15;" edge="1" parent="SNuMMxpqQReHFDGT-ari-1" source="SNuMMxpqQReHFDGT-ari-13" target="SNuMMxpqQReHFDGT-ari-15">
          <mxGeometry relative="1" as="geometry" />
        </mxCell>
        <mxCell id="SNuMMxpqQReHFDGT-ari-12" style="edgeStyle=none;rounded=0;orthogonalLoop=1;jettySize=auto;html=1;exitX=0.5;exitY=1;exitDx=0;exitDy=0;entryX=0.5;entryY=0;entryDx=0;entryDy=0;fontFamily=Verdana;fontSize=15;" edge="1" parent="SNuMMxpqQReHFDGT-ari-1" source="SNuMMxpqQReHFDGT-ari-13" target="SNuMMxpqQReHFDGT-ari-21">
          <mxGeometry relative="1" as="geometry" />
        </mxCell>
        <mxCell id="SNuMMxpqQReHFDGT-ari-13" value="`i-1`" style="ellipse;whiteSpace=wrap;html=1;aspect=fixed;fontFamily=Times New Roman;fontSize=17;" vertex="1" parent="SNuMMxpqQReHFDGT-ari-1">
          <mxGeometry x="255" y="260" width="50" height="50" as="geometry" />
        </mxCell>
        <mxCell id="SNuMMxpqQReHFDGT-ari-14" value="r[`i-1`][1], r[`i-1`][2], ..." style="rounded=0;whiteSpace=wrap;html=1;fontFamily=Verdana;fontSize=15;" vertex="1" parent="SNuMMxpqQReHFDGT-ari-1">
          <mxGeometry x="330" y="340" width="210" height="40" as="geometry" />
        </mxCell>
        <mxCell id="SNuMMxpqQReHFDGT-ari-15" value="n[`i-1`][2], n[`i-1`][3], ..." style="rounded=0;whiteSpace=wrap;html=1;fontFamily=Verdana;fontSize=15;" vertex="1" parent="SNuMMxpqQReHFDGT-ari-1">
          <mxGeometry x="30" y="340" width="210" height="40" as="geometry" />
        </mxCell>
        <mxCell id="SNuMMxpqQReHFDGT-ari-16" value="..." style="text;html=1;strokeColor=none;fillColor=none;align=center;verticalAlign=middle;whiteSpace=wrap;rounded=0;fontFamily=Times New Roman;fontSize=17;" vertex="1" parent="SNuMMxpqQReHFDGT-ari-1">
          <mxGeometry x="257.5" y="445" width="45" height="30" as="geometry" />
        </mxCell>
        <mxCell id="SNuMMxpqQReHFDGT-ari-17" value="sub-trees of n[`i`][1]" style="text;html=1;strokeColor=none;fillColor=none;align=center;verticalAlign=middle;whiteSpace=wrap;rounded=0;fontFamily=Verdana;fontSize=15;" vertex="1" parent="SNuMMxpqQReHFDGT-ari-1">
          <mxGeometry x="20" y="380" width="200" height="30" as="geometry" />
        </mxCell>
        <mxCell id="SNuMMxpqQReHFDGT-ari-18" style="edgeStyle=none;rounded=0;orthogonalLoop=1;jettySize=auto;html=1;exitX=1;exitY=1;exitDx=0;exitDy=0;entryX=0.5;entryY=0;entryDx=0;entryDy=0;fontFamily=Verdana;fontSize=15;" edge="1" parent="SNuMMxpqQReHFDGT-ari-1" source="SNuMMxpqQReHFDGT-ari-21" target="SNuMMxpqQReHFDGT-ari-22">
          <mxGeometry relative="1" as="geometry" />
        </mxCell>
        <mxCell id="SNuMMxpqQReHFDGT-ari-19" style="edgeStyle=none;rounded=0;orthogonalLoop=1;jettySize=auto;html=1;exitX=0;exitY=1;exitDx=0;exitDy=0;entryX=0.5;entryY=0;entryDx=0;entryDy=0;fontFamily=Verdana;fontSize=15;" edge="1" parent="SNuMMxpqQReHFDGT-ari-1" source="SNuMMxpqQReHFDGT-ari-21" target="SNuMMxpqQReHFDGT-ari-23">
          <mxGeometry relative="1" as="geometry" />
        </mxCell>
        <mxCell id="SNuMMxpqQReHFDGT-ari-20" style="edgeStyle=none;rounded=0;orthogonalLoop=1;jettySize=auto;html=1;exitX=0.5;exitY=1;exitDx=0;exitDy=0;entryX=0.5;entryY=0;entryDx=0;entryDy=0;fontFamily=Verdana;fontSize=15;" edge="1" parent="SNuMMxpqQReHFDGT-ari-1" source="SNuMMxpqQReHFDGT-ari-21" target="SNuMMxpqQReHFDGT-ari-16">
          <mxGeometry relative="1" as="geometry" />
        </mxCell>
        <mxCell id="SNuMMxpqQReHFDGT-ari-21" value="`i`" style="ellipse;whiteSpace=wrap;html=1;aspect=fixed;fontFamily=Times New Roman;fontSize=17;" vertex="1" parent="SNuMMxpqQReHFDGT-ari-1">
          <mxGeometry x="255" y="350" width="50" height="50" as="geometry" />
        </mxCell>
        <mxCell id="SNuMMxpqQReHFDGT-ari-22" value="r[`i`][1], r[`i`][2], ..." style="rounded=0;whiteSpace=wrap;html=1;fontFamily=Verdana;fontSize=15;" vertex="1" parent="SNuMMxpqQReHFDGT-ari-1">
          <mxGeometry x="330" y="440" width="210" height="40" as="geometry" />
        </mxCell>
        <mxCell id="SNuMMxpqQReHFDGT-ari-23" value="n[`i`][2], ..." style="rounded=0;whiteSpace=wrap;html=1;fontFamily=Verdana;fontSize=15;" vertex="1" parent="SNuMMxpqQReHFDGT-ari-1">
          <mxGeometry x="30" y="440" width="210" height="40" as="geometry" />
        </mxCell>
        <mxCell id="C1FAbYNIj-eXt7VANe18-0" value="extract `x[1]`" style="text;html=1;strokeColor=none;fillColor=none;align=center;verticalAlign=middle;whiteSpace=wrap;rounded=0;fontFamily=Verdana;fontSize=15;" vertex="1" parent="SNuMMxpqQReHFDGT-ari-1">
          <mxGeometry x="40" y="70" width="200" height="30" as="geometry" />
        </mxCell>
        <mxCell id="C1FAbYNIj-eXt7VANe18-1" value="`x[2], x[3], ...`" style="rounded=0;whiteSpace=wrap;html=1;fontFamily=Verdana;fontSize=15;" vertex="1" parent="SNuMMxpqQReHFDGT-ari-1">
          <mxGeometry x="30" y="120" width="210" height="40" as="geometry" />
        </mxCell>
        <mxCell id="29oAfkxjsVzLTLWGs3iK-2" style="edgeStyle=none;rounded=0;orthogonalLoop=1;jettySize=auto;html=1;exitX=0.5;exitY=1;exitDx=0;exitDy=0;entryX=0.5;entryY=0;entryDx=0;entryDy=0;fontFamily=Verdana;fontSize=15;" edge="1" parent="SNuMMxpqQReHFDGT-ari-1" source="29oAfkxjsVzLTLWGs3iK-0" target="29oAfkxjsVzLTLWGs3iK-1">
          <mxGeometry relative="1" as="geometry" />
        </mxCell>
        <mxCell id="29oAfkxjsVzLTLWGs3iK-5" style="edgeStyle=none;rounded=0;orthogonalLoop=1;jettySize=auto;html=1;exitX=1;exitY=1;exitDx=0;exitDy=0;entryX=0.5;entryY=0;entryDx=0;entryDy=0;fontFamily=Verdana;fontSize=15;" edge="1" parent="SNuMMxpqQReHFDGT-ari-1" source="29oAfkxjsVzLTLWGs3iK-0" target="29oAfkxjsVzLTLWGs3iK-4">
          <mxGeometry relative="1" as="geometry" />
        </mxCell>
        <mxCell id="29oAfkxjsVzLTLWGs3iK-6" style="edgeStyle=none;rounded=0;orthogonalLoop=1;jettySize=auto;html=1;exitX=0;exitY=1;exitDx=0;exitDy=0;entryX=0.5;entryY=0;entryDx=0;entryDy=0;fontFamily=Verdana;fontSize=15;" edge="1" parent="SNuMMxpqQReHFDGT-ari-1" source="29oAfkxjsVzLTLWGs3iK-0" target="29oAfkxjsVzLTLWGs3iK-3">
          <mxGeometry relative="1" as="geometry" />
        </mxCell>
        <mxCell id="29oAfkxjsVzLTLWGs3iK-0" value="2" style="ellipse;whiteSpace=wrap;html=1;aspect=fixed;fontFamily=Times New Roman;fontSize=17;" vertex="1" parent="SNuMMxpqQReHFDGT-ari-1">
          <mxGeometry x="255" y="120" width="50" height="50" as="geometry" />
        </mxCell>
        <mxCell id="29oAfkxjsVzLTLWGs3iK-1" value="..." style="text;html=1;strokeColor=none;fillColor=none;align=center;verticalAlign=middle;whiteSpace=wrap;rounded=0;fontFamily=Times New Roman;fontSize=17;" vertex="1" parent="SNuMMxpqQReHFDGT-ari-1">
          <mxGeometry x="257.5" y="200" width="45" height="30" as="geometry" />
        </mxCell>
        <mxCell id="29oAfkxjsVzLTLWGs3iK-3" value="n[2][2], n[2][3], ..." style="rounded=0;whiteSpace=wrap;html=1;fontFamily=Verdana;fontSize=15;" vertex="1" parent="SNuMMxpqQReHFDGT-ari-1">
          <mxGeometry x="30" y="190" width="210" height="40" as="geometry" />
        </mxCell>
        <mxCell id="29oAfkxjsVzLTLWGs3iK-4" value="r[2][1], r[2][2], ..." style="rounded=0;whiteSpace=wrap;html=1;fontFamily=Verdana;fontSize=15;" vertex="1" parent="SNuMMxpqQReHFDGT-ari-1">
          <mxGeometry x="330" y="190" width="170" height="40" as="geometry" />
        </mxCell>
      </root>
    </mxGraphModel>
  </diagram>
</mxfile>
